<?xml version="1.0" encoding="UTF-8"?>
<svg id="Layer_1" data-name="Layer 1" fill="currentColor" xmlns="http://www.w3.org/2000/svg" viewBox="0 0 300 300">
  <g>
    <path class="cls-1" d="M37.63,181.69c-1.29,0-2.33-1.05-2.33-2.33s1.05-2.33,2.33-2.33h224.74c1.29,0,2.33,1.05,2.33,2.33s-1.05,2.33-2.33,2.33H37.63Z"/>
    <path class="cls-2" d="M262.37,182.29H37.63c-1.62,0-2.93-1.31-2.93-2.93s1.31-2.93,2.93-2.93h224.74c1.62,0,2.93,1.31,2.93,2.93s-1.31,2.93-2.93,2.93ZM37.63,177.63c-.96,0-1.73.78-1.73,1.74s.78,1.74,1.73,1.74h224.74c.96,0,1.74-.78,1.74-1.74s-.78-1.74-1.74-1.74H37.63Z"/>
  </g>
  <g>
    <path class="cls-1" d="M189.19,195.86c-1.75,0-3.16-1.42-3.16-3.16s1.42-3.16,3.16-3.16h6.3c1.75,0,3.16,1.42,3.16,3.16s-1.42,3.16-3.16,3.16h-6.3Z"/>
    <path class="cls-2" d="M195.49,196.45h-6.3c-2.07,0-3.76-1.69-3.76-3.76s1.69-3.76,3.76-3.76h6.3c2.08,0,3.76,1.69,3.76,3.76s-1.69,3.76-3.76,3.76ZM189.19,190.13c-1.42,0-2.57,1.15-2.57,2.57s1.15,2.57,2.57,2.57h6.3c1.42,0,2.57-1.15,2.57-2.57s-1.15-2.57-2.57-2.57h-6.3Z"/>
  </g>
  <g>
    <path class="cls-1" d="M212.05,195.86c-1.75,0-3.16-1.42-3.16-3.16s1.42-3.16,3.16-3.16h6.3c1.75,0,3.16,1.42,3.16,3.16s-1.42,3.16-3.16,3.16h-6.3Z"/>
    <path class="cls-2" d="M218.35,196.45h-6.3c-2.07,0-3.76-1.69-3.76-3.76s1.69-3.76,3.76-3.76h6.3c2.08,0,3.76,1.69,3.76,3.76s-1.69,3.76-3.76,3.76ZM212.05,190.13c-1.42,0-2.57,1.15-2.57,2.57s1.15,2.57,2.57,2.57h6.3c1.42,0,2.57-1.15,2.57-2.57s-1.15-2.57-2.57-2.57h-6.3Z"/>
  </g>
  <g>
    <path class="cls-1" d="M234.47,195.86c-1.75,0-3.16-1.42-3.16-3.16s1.42-3.16,3.16-3.16h6.74c1.75,0,3.16,1.42,3.16,3.16s-1.42,3.16-3.16,3.16h-6.74Z"/>
    <path class="cls-2" d="M241.21,196.45h-6.74c-2.08,0-3.76-1.69-3.76-3.76s1.69-3.76,3.76-3.76h6.74c2.07,0,3.76,1.69,3.76,3.76s-1.69,3.76-3.76,3.76ZM234.47,190.13c-1.42,0-2.57,1.15-2.57,2.57s1.15,2.57,2.57,2.57h6.74c1.42,0,2.57-1.15,2.57-2.57s-1.15-2.57-2.57-2.57h-6.74Z"/>
  </g>
  <g>
    <path class="cls-1" d="M123.81,240.04c-.18,0-.36-.02-.54-.06-1.25-.3-2.03-1.56-1.73-2.81l7.6-31.68c.25-1.05,1.19-1.79,2.27-1.79.18,0,.37.02.55.06.6.14,1.11.52,1.44,1.05.33.53.43,1.16.28,1.76l-7.6,31.68c-.25,1.05-1.19,1.79-2.27,1.79Z"/>
    <path class="cls-2" d="M123.81,240.63c-.23,0-.46-.03-.68-.08-1.57-.38-2.54-1.96-2.17-3.53l7.6-31.68c.32-1.32,1.49-2.25,2.85-2.25.23,0,.46.03.69.08.76.18,1.4.65,1.81,1.32.41.67.54,1.46.35,2.22l-7.6,31.68c-.32,1.33-1.49,2.25-2.85,2.25ZM131.41,204.29c-.81,0-1.5.55-1.69,1.33l-7.6,31.68c-.22.93.35,1.87,1.29,2.09.93.23,1.87-.37,2.09-1.29l7.6-31.68c.11-.45.03-.92-.21-1.31-.24-.4-.62-.67-1.07-.78-.13-.03-.27-.05-.41-.05Z"/>
  </g>
  <g>
    <path class="cls-1" d="M176.18,240.04c-1.1,0-2.06-.79-2.28-1.87l-6.45-31.68c-.25-1.26.56-2.49,1.82-2.75.16-.03.32-.05.48-.05,1.1,0,2.05.79,2.27,1.87l6.45,31.68c.25,1.26-.56,2.49-1.82,2.75-.15.03-.31.05-.47.05Z"/>
    <path class="cls-2" d="M176.18,240.64c-1.38,0-2.59-.99-2.87-2.35l-6.45-31.68c-.15-.77,0-1.55.43-2.2s1.09-1.1,1.86-1.25c.19-.04.39-.06.59-.06,1.38,0,2.58.99,2.86,2.35l6.45,31.68c.32,1.58-.71,3.13-2.29,3.45-.19.04-.39.06-.59.06ZM169.74,204.3c-.12,0-.24.01-.35.04-.45.09-.84.36-1.1.74-.26.39-.35.85-.25,1.3l6.45,31.68c.19.92,1.15,1.54,2.05,1.36.93-.19,1.54-1.1,1.35-2.04l-6.45-31.68c-.16-.81-.87-1.39-1.69-1.39Z"/>
  </g>
  <g>
    <path class="cls-1" d="M105.44,240.03c-1.29,0-2.33-1.05-2.33-2.33s1.05-2.33,2.33-2.33h88.82c1.29,0,2.33,1.05,2.33,2.33s-1.05,2.33-2.33,2.33h-88.82Z"/>
    <path class="cls-2" d="M194.26,240.63h-88.82c-1.62,0-2.93-1.31-2.93-2.93s1.31-2.93,2.93-2.93h88.82c1.62,0,2.93,1.31,2.93,2.93s-1.31,2.93-2.93,2.93ZM105.44,235.97c-.96,0-1.73.78-1.73,1.74s.78,1.73,1.73,1.73h88.82c.96,0,1.73-.78,1.73-1.73s-.78-1.74-1.73-1.74h-88.82Z"/>
  </g>
  <g>
    <path class="cls-1" d="M45.49,208.36c-5.9,0-10.18-4.28-10.18-10.18v-127.8c0-5.84,4.47-10.41,10.18-10.41h209.03c5.61,0,10.18,4.67,10.18,10.41v127.8c0,5.71-4.48,10.18-10.19,10.18H45.49ZM45.49,64.62c-3.63,0-5.52,2.89-5.52,5.75v127.8c0,3.36,2.17,5.52,5.52,5.52h209.03c3.15,0,5.52-2.37,5.52-5.52v-127.81c0-3.12-2.53-5.75-5.52-5.75H45.49Z"/>
    <path class="cls-2" d="M254.51,208.95H45.49c-6.25,0-10.78-4.53-10.78-10.78v-127.8c0-6.17,4.74-11,10.78-11h209.03c5.94,0,10.78,4.94,10.78,11v127.8c0,6.04-4.74,10.78-10.79,10.78ZM45.49,60.56c-5.38,0-9.58,4.31-9.58,9.81v127.8c0,5.55,4.03,9.58,9.58,9.58h209.02c5.38,0,9.59-4.21,9.59-9.58v-127.8c0-5.41-4.3-9.81-9.58-9.81H45.49ZM254.52,204.3H45.49c-3.66,0-6.12-2.46-6.12-6.12v-127.8c0-3.15,2.1-6.35,6.12-6.35h209.03c3.32,0,6.12,2.9,6.12,6.34v127.81c0,3.49-2.63,6.12-6.12,6.12ZM45.49,65.22c-3.23,0-4.93,2.59-4.93,5.15v127.8c0,3.04,1.89,4.93,4.93,4.93h209.03c2.81,0,4.93-2.12,4.93-4.93v-127.81c0-2.79-2.26-5.15-4.93-5.15H45.49Z"/>
  </g>
  <g>
    <path class="cls-1" d="M69.53,162.17c-1.29,0-2.33-1.05-2.33-2.33v-78.03c0-1.29,1.05-2.33,2.33-2.33h30.82c1.29,0,2.33,1.05,2.33,2.33v78.03c0,1.29-1.05,2.33-2.33,2.33h-30.82ZM71.87,157.51h26.16v-73.37h-26.16v73.37Z"/>
    <path class="cls-2" d="M100.36,162.77h-30.82c-1.62,0-2.93-1.31-2.93-2.93v-78.03c0-1.62,1.31-2.93,2.93-2.93h30.82c1.62,0,2.93,1.31,2.93,2.93v78.03c0,1.62-1.31,2.93-2.93,2.93ZM69.53,80.07c-.96,0-1.73.78-1.73,1.74v78.03c0,.96.78,1.74,1.73,1.74h30.82c.96,0,1.73-.78,1.73-1.74v-78.03c0-.96-.78-1.74-1.73-1.74h-30.82ZM98.62,158.11h-27.35v-74.57h27.35v74.57ZM72.46,156.91h24.96v-72.18h-24.96v72.18Z"/>
  </g>
  <g>
    <path class="cls-1" d="M118.69,160.85c-1.24,0-2.26-1.01-2.26-2.26v-77.46c0-1.24,1.01-2.26,2.26-2.26h113.18c1.24,0,2.26,1.01,2.26,2.26v77.46c0,1.24-1.02,2.26-2.26,2.26h-113.18ZM120.94,156.35h108.67v-72.95h-108.67v72.95Z"/>
    <path class="cls-2" d="M231.87,161.45h-113.18c-1.57,0-2.85-1.28-2.85-2.85v-77.46c0-1.57,1.28-2.85,2.85-2.85h113.18c1.57,0,2.85,1.28,2.85,2.85v77.46c0,1.57-1.29,2.85-2.85,2.85ZM118.69,79.48c-.91,0-1.66.74-1.66,1.66v77.46c0,.91.74,1.66,1.66,1.66h113.18c.91,0,1.66-.75,1.66-1.66v-77.46c0-.91-.74-1.66-1.66-1.66h-113.18ZM230.2,156.95h-109.86v-74.15h109.86v74.15ZM121.53,155.75h107.47v-71.76h-107.47v71.76Z"/>
  </g>
  <g>
    <path class="cls-1" d="M122.88,157.94l28.08-38.16c.23-.31.58-.49.96-.49h0c.38,0,.74.18.96.49l28.08,38.5c.49.67,1.22,1.05,2,1.06.5.03,1.05-.17,1.49-.53.55-.45.91-1.09,1-1.82.09-.73-.1-1.46-.52-2.04l-31.03-42.56c-.48-.66-1.21-1.05-1.99-1.05h-.02c-.77,0-1.49.37-1.97,1.02l-31.02,42.17c-.88,1.2-.67,2.93.48,3.87.44.36.97.55,1.52.55.46,0,.85.28,1.04.66l.86-.44c-.2-.39-.19-.87.09-1.25Z"/>
    <path class="cls-2" d="M121.67,160.42l-.27-.53c-.11-.21-.3-.33-.52-.33-.69,0-1.34-.24-1.89-.69-1.38-1.13-1.64-3.24-.58-4.69l31.03-42.17c.59-.8,1.48-1.26,2.45-1.26,1,0,1.9.48,2.49,1.3l31.03,42.56c.52.71.74,1.58.63,2.47s-.54,1.67-1.21,2.21c-.55.45-1.24.7-1.89.66-.95,0-1.85-.48-2.45-1.3l-28.08-38.5c-.22-.31-.74-.31-.96,0l-28.08,38.16c-.15.21-.12.46-.04.62l.27.53-1.92.98ZM151.89,111.94c-.59,0-1.13.28-1.5.77l-31.02,42.17c-.69.95-.53,2.32.37,3.05.33.27.73.42,1.14.42.44,0,.86.17,1.18.46-.05-.44.06-.88.33-1.24h0s28.08-38.16,28.08-38.16c.34-.46.88-.73,1.44-.73.57,0,1.11.28,1.45.74l28.08,38.5c.37.51.93.81,1.52.81.37,0,.79-.13,1.11-.39.43-.35.71-.85.78-1.43.07-.58-.08-1.16-.41-1.62l-31.03-42.56c-.37-.51-.92-.8-1.52-.8Z"/>
  </g>
  <g>
    <path class="cls-1" d="M231.9,160.85c-.73,0-1.42-.36-1.84-.95l-22.16-31.14-22.16,31.15c-.42.59-1.11.94-1.84.94-.47,0-.92-.14-1.3-.42-.49-.35-.81-.87-.91-1.46-.1-.59.04-1.19.39-1.68l23.99-33.72c.43-.6,1.1-.95,1.84-.95s1.4.34,1.83.94l23.99,33.72c.72,1.01.48,2.42-.53,3.14-.38.27-.82.42-1.29.42Z"/>
    <path class="cls-2" d="M231.9,161.45c-.92,0-1.79-.45-2.33-1.2l-21.67-30.46-21.67,30.46c-.88,1.23-2.73,1.55-3.98.67-.62-.44-1.03-1.1-1.15-1.85-.13-.75.05-1.51.49-2.13l23.99-33.72c.54-.76,1.39-1.2,2.33-1.2s1.78.44,2.32,1.2l23.99,33.72c.91,1.28.61,3.06-.67,3.98-.48.34-1.04.53-1.64.53ZM207.9,127.73l22.65,31.83c.51.72,1.59.91,2.3.4.75-.53.92-1.57.39-2.31l-23.99-33.72c-.62-.88-2.07-.88-2.7,0l-23.99,33.72c-.26.36-.36.8-.28,1.24.07.44.31.82.67,1.07.73.51,1.8.32,2.31-.39l22.65-31.83Z"/>
  </g>
  <g>
    <path class="cls-1" d="M183.92,123.97c-7,0-12.69-5.69-12.69-12.69s5.69-12.69,12.69-12.69,12.69,5.69,12.69,12.69-5.69,12.69-12.69,12.69ZM183.92,103.1c-4.51,0-8.18,3.67-8.18,8.18s3.67,8.18,8.18,8.18,8.18-3.67,8.18-8.18-3.67-8.18-8.18-8.18Z"/>
    <path class="cls-2" d="M183.92,124.57c-7.33,0-13.29-5.96-13.29-13.28s5.96-13.28,13.29-13.28,13.28,5.96,13.28,13.28-5.96,13.28-13.28,13.28ZM183.92,99.2c-6.67,0-12.1,5.42-12.1,12.09s5.43,12.09,12.1,12.09,12.09-5.42,12.09-12.09-5.42-12.09-12.09-12.09ZM183.92,120.07c-4.84,0-8.78-3.94-8.78-8.78s3.94-8.78,8.78-8.78,8.78,3.94,8.78,8.78-3.94,8.78-8.78,8.78ZM183.92,103.7c-4.18,0-7.59,3.4-7.59,7.58s3.4,7.59,7.59,7.59,7.58-3.4,7.58-7.59-3.4-7.58-7.58-7.58Z"/>
  </g>
  <g>
    <path class="cls-1" d="M145.44,106.2c-1.17,0-2.17-.78-2.44-1.9-1.44-5.88-6.07-6.51-7.99-6.51-.71,0-1.31.08-1.69.14-.19.04-.35.05-.51.05-1.18,0-2.2-.86-2.43-2.03-.12-.65.02-1.31.39-1.86.38-.56.95-.93,1.6-1.06.77-.15,1.59-.22,2.45-.22,3.57,0,6.97,1.3,9.33,3.58l1.2,1.16,1.16-1.21c.67-.7,1.43-1.32,2.28-1.83,2.42-1.47,4.99-1.78,6.71-1.78s2.88.28,3.1.33c1.34.34,2.15,1.7,1.82,3.04-.28,1.11-1.28,1.89-2.43,1.89-.2,0-.41-.03-.61-.07-.7-.16-1.39-.24-2.06-.24-1.77,0-6.04.65-7.47,6.63-.25,1.04-1.13,1.8-2.19,1.91h-.22Z"/>
    <path class="cls-2" d="M145.72,106.8h-.28c-1.44,0-2.68-.97-3.02-2.36-1.34-5.46-5.63-6.05-7.41-6.05-.71,0-1.3.08-1.59.13-.22.04-.42.06-.61.06-1.46,0-2.73-1.06-3.02-2.52-.15-.81.02-1.63.49-2.32.47-.69,1.17-1.15,1.98-1.31.81-.16,1.67-.23,2.56-.23,3.73,0,7.28,1.37,9.75,3.75l.77.74.74-.77c.7-.74,1.51-1.38,2.4-1.92,2.54-1.54,5.22-1.87,7.03-1.87s3.01.29,3.25.35c1.65.42,2.67,2.1,2.25,3.76-.35,1.38-1.58,2.34-3.01,2.34-.25,0-.51-.03-.75-.09-.64-.15-1.29-.22-1.92-.22-1.63,0-5.56.6-6.89,6.17-.31,1.29-1.4,2.24-2.71,2.36ZM135,97.18c2.07,0,7.04.68,8.58,6.97.21.85.97,1.45,1.86,1.45h.23c.74-.07,1.4-.65,1.59-1.44,1.52-6.39,6.14-7.08,8.05-7.08.71,0,1.45.08,2.19.25,1.08.27,2.07-.38,2.32-1.38.25-1.02-.37-2.06-1.39-2.31-.21-.05-1.33-.32-2.95-.32s-4.1.29-6.4,1.69c-.8.49-1.52,1.07-2.16,1.73l-1.57,1.64-1.63-1.58c-2.25-2.17-5.5-3.41-8.92-3.41-.81,0-1.6.07-2.33.21-.5.1-.93.38-1.22.81-.29.42-.39.92-.3,1.42.17.9.95,1.55,1.84,1.55.13,0,.25-.01.4-.04.41-.07,1.04-.15,1.8-.15Z"/>
  </g>
</svg>