<?xml version="1.0" encoding="UTF-8"?>
<svg id="Layer_1" data-name="Layer 1" fill="currentColor" xmlns="http://www.w3.org/2000/svg" viewBox="0 0 300 300">
  <path class="cls-1" d="M149.51,188.01h-26.45c-1.16,0-2.22-.62-2.8-1.62l-13.22-22.9c-.58-1-.58-2.24,0-3.24l13.22-22.9c.58-1,1.65-1.62,2.8-1.62h26.45c1.16,0,2.22.62,2.8,1.62l13.22,22.9c.58,1,.58,2.23,0,3.24l-13.22,22.9c-.58,1-1.65,1.62-2.8,1.62ZM124.93,181.54h22.71l11.35-19.67-11.35-19.67h-22.71l-11.35,19.67,11.35,19.67Z"/>
  <g>
    <path class="cls-1" d="M204.65,165.1h-31.98c-1.79,0-3.24-1.45-3.24-3.24s1.45-3.24,3.24-3.24h31.98c1.79,0,3.24,1.45,3.24,3.24s-1.45,3.24-3.24,3.24Z"/>
    <path class="cls-1" d="M191.5,176.34c-.91,0-1.82-.38-2.46-1.13-1.16-1.36-1-3.4.36-4.56l10.27-8.78-10.27-8.78c-1.36-1.16-1.52-3.2-.36-4.56,1.16-1.36,3.2-1.52,4.56-.36l13.15,11.24c.72.61,1.13,1.51,1.13,2.46s-.41,1.85-1.13,2.46l-13.15,11.24c-.61.52-1.36.78-2.1.78Z"/>
  </g>
  <g>
    <path class="cls-1" d="M82.24,197.79c-1,0-1.99-.47-2.63-1.34-1.05-1.45-.72-3.47.73-4.52l23.27-16.81c1.45-1.05,3.47-.72,4.52.73s.72,3.47-.73,4.52l-23.27,16.81c-.57.41-1.24.61-1.89.61Z"/>
    <path class="cls-1" d="M99.48,199.2c-.09,0-.18,0-.27-.01l-17.24-1.41c-.94-.08-1.81-.56-2.36-1.33-.55-.77-.75-1.74-.52-2.66l4.08-16.81c.42-1.74,2.17-2.81,3.91-2.38,1.74.42,2.8,2.17,2.38,3.91l-3.19,13.13,13.47,1.1c1.78.14,3.11,1.71,2.96,3.49-.14,1.69-1.55,2.97-3.22,2.97Z"/>
  </g>
  <path class="cls-1" d="M241.46,188c-14.41,0-26.13-11.72-26.13-26.13s11.72-26.13,26.13-26.13,26.13,11.72,26.13,26.13-11.72,26.13-26.13,26.13ZM241.46,142.21c-10.84,0-19.66,8.82-19.66,19.66s8.82,19.66,19.66,19.66,19.66-8.82,19.66-19.66-8.82-19.66-19.66-19.66Z"/>
  <path class="cls-1" d="M155.95,98.52h-39.33c-1.79,0-3.24-1.45-3.24-3.24v-39.33c0-1.79,1.45-3.24,3.24-3.24h39.33c1.79,0,3.24,1.45,3.24,3.24v39.33c0,1.79-1.45,3.24-3.24,3.24ZM119.86,92.05h32.86v-32.86h-32.86v32.86Z"/>
  <path class="cls-1" d="M89.74,232.12h-54.09c-1.16,0-2.22-.62-2.8-1.62-.58-1-.58-2.24,0-3.24l27.05-46.85c.58-1,1.65-1.62,2.8-1.62s2.22.62,2.8,1.62l27.05,46.85c.58,1,.58,2.24,0,3.24-.58,1-1.65,1.62-2.8,1.62ZM41.25,225.65h42.88l-21.44-37.14-21.44,37.14Z"/>
  <path class="cls-1" d="M136.29,131.38c-1.79,0-3.24-1.45-3.24-3.24v-22.84c0-1.79,1.45-3.24,3.24-3.24s3.24,1.45,3.24,3.24v22.84c0,1.79-1.45,3.24-3.24,3.24Z"/>
  <path class="cls-1" d="M241.46,127.49c-1.79,0-3.24-1.45-3.24-3.24v-45.4h-70.06c-1.79,0-3.24-1.45-3.24-3.24s1.45-3.24,3.24-3.24h73.3c1.79,0,3.24,1.45,3.24,3.24v48.63c0,1.79-1.45,3.24-3.24,3.24Z"/>
  <path class="cls-1" d="M139.17,226.36h-29.33c-1.79,0-3.24-1.45-3.24-3.24s1.45-3.24,3.24-3.24h29.33c1.79,0,3.24,1.45,3.24,3.24s-1.45,3.24-3.24,3.24Z"/>
  <path class="cls-1" d="M241.46,226.36h-33.53c-1.79,0-3.24-1.45-3.24-3.24s1.45-3.24,3.24-3.24h30.3v-23.21c0-1.79,1.45-3.24,3.24-3.24s3.24,1.45,3.24,3.24v26.44c0,1.79-1.45,3.24-3.24,3.24Z"/>
  <path class="cls-1" d="M178.06,247.28h-10.77c-10.35,0-18.77-8.42-18.77-18.77v-10.77c0-10.35,8.42-18.77,18.77-18.77h10.77c10.35,0,18.77,8.42,18.77,18.77v10.77c0,10.35-8.42,18.77-18.77,18.77ZM167.28,205.44c-6.78,0-12.3,5.52-12.3,12.3v10.77c0,6.78,5.52,12.3,12.3,12.3h10.77c6.78,0,12.3-5.52,12.3-12.3v-10.77c0-6.78-5.52-12.3-12.3-12.3h-10.77Z"/>
  <path class="cls-1" d="M71.45,151.3h-16.63c-.8,0-1.57-.3-2.17-.83l-9.2-8.31c-.68-.61-1.07-1.49-1.07-2.4v-36.15c0-.92.39-1.79,1.07-2.4l9.2-8.31c.59-.54,1.37-.83,2.17-.83h16.63c.86,0,1.68.34,2.29.95l8.31,8.3c.61.61.95,1.43.95,2.29v36.17c0,.86-.34,1.68-.95,2.29l-8.31,8.3c-.61.61-1.43.95-2.29.95ZM56.06,144.83h14.05l6.42-6.41v-33.49l-6.42-6.41h-14.05l-7.21,6.52v33.28l7.21,6.51Z"/>
  <path class="cls-1" d="M62.69,87.43c-1.79,0-3.24-1.45-3.24-3.24v-8.57c0-1.79,1.45-3.24,3.24-3.24h42.81c1.79,0,3.24,1.45,3.24,3.24s-1.45,3.24-3.24,3.24h-39.58v5.33c0,1.79-1.45,3.24-3.24,3.24Z"/>
  <path class="cls-1" d="M62.69,174.28c-1.79,0-3.24-1.45-3.24-3.24v-11.97c0-1.79,1.45-3.24,3.24-3.24s3.24,1.45,3.24,3.24v11.97c0,1.79-1.45,3.24-3.24,3.24Z"/>
</svg>