<?xml version="1.0" encoding="UTF-8"?>
<svg id="Layer_1"  fill="currentColor" data-name="Layer 1" xmlns="http://www.w3.org/2000/svg" viewBox="0 0 300 300">
  <path class="cls-1" d="M209.31,101.75h-118.62c-1.16,0-2.23-.58-2.87-1.54l-12.31-18.55c-.77-1.15-.77-2.66,0-3.81l12.31-18.55c.64-.96,1.72-1.54,2.87-1.54h118.62c1.16,0,2.23.58,2.87,1.54l12.31,18.55c.77,1.15.77,2.66,0,3.81l-12.31,18.55c-.64.96-1.72,1.54-2.87,1.54ZM92.54,94.86h114.92l10.02-15.11-10.02-15.11h-114.92l-10.02,15.11,10.02,15.11Z"/>
  <path class="cls-1" d="M201.84,125.38c-1.9,0-3.45-1.54-3.45-3.45v-12.56c0-1.9,1.54-3.45,3.45-3.45s3.45,1.54,3.45,3.45v12.56c0,1.9-1.54,3.45-3.45,3.45Z"/>
  <path class="cls-1" d="M201.84,175.44c-12.8,0-23.22-10.42-23.22-23.22s10.42-23.22,23.22-23.22,23.22,10.42,23.22,23.22-10.42,23.22-23.22,23.22ZM201.84,135.9c-9,0-16.33,7.32-16.33,16.33s7.32,16.33,16.33,16.33,16.33-7.32,16.33-16.33-7.32-16.33-16.33-16.33Z"/>
  <path class="cls-1" d="M170.02,155.67h-45.7c-1.9,0-3.45-1.54-3.45-3.45s1.54-3.45,3.45-3.45h45.7c1.9,0,3.45,1.54,3.45,3.45s-1.54,3.45-3.45,3.45Z"/>
  <path class="cls-1" d="M113.06,202.63h-34.68c-1.9,0-3.45-1.54-3.45-3.45v-69.36c0-1.9,1.54-3.45,3.45-3.45h34.68c1.9,0,3.45,1.54,3.45,3.45v69.36c0,.91-.36,1.79-1.01,2.44-.65.65-1.52,1.01-2.44,1.01ZM81.83,195.74h27.79s0-62.46,0-62.46h-27.79v62.46Z"/>
  <path class="cls-1" d="M147.79,224.74h-53.66c-1.9,0-3.45-1.54-3.45-3.45v-9.97c0-1.9,1.54-3.45,3.45-3.45s3.45,1.54,3.45,3.45v6.53h50.22c1.9,0,3.45,1.54,3.45,3.45s-1.54,3.45-3.45,3.45Z"/>
  <path class="cls-1" d="M195.06,242.25h-35.03c-1.9,0-3.45-1.54-3.45-3.45v-35.03c0-1.9,1.54-3.45,3.45-3.45h35.03c1.9,0,3.45,1.54,3.45,3.45v35.03c0,1.9-1.54,3.45-3.45,3.45ZM163.48,235.36h28.13v-28.13h-28.13v28.13Z"/>
</svg>