<?xml version="1.0" encoding="UTF-8"?>
<svg id="Layer_1" data-name="Layer 1" fill="currentColor" xmlns="http://www.w3.org/2000/svg" viewBox="0 0 300 300">
  <g id="Layer_1-2" data-name="Layer 1">
    <g>
      <path d="M34.49,182.58c-1.32,0-2.4-1.08-2.4-2.4s1.08-2.4,2.4-2.4h231.02c1.32,0,2.4,1.08,2.4,2.4s-1.08,2.4-2.4,2.4H34.49Z"/>
      <path d="M265.51,183.22H34.49c-1.67,0-3.04-1.36-3.04-3.04s1.36-3.04,3.04-3.04h231.02c1.68,0,3.04,1.36,3.04,3.04s-1.36,3.04-3.04,3.04ZM34.49,178.43c-.97,0-1.76.79-1.76,1.76s.79,1.76,1.76,1.76h231.02c.97,0,1.76-.79,1.76-1.76s-.79-1.76-1.76-1.76H34.49Z"/>
    </g>
    <g>
      <g>
        <path class="cls-1" d="M190.29,196.28c-1.32,0-2.4-1.08-2.4-2.4s1.08-2.4,2.4-2.4h6.47c1.32,0,2.4,1.08,2.4,2.4s-1.07,2.4-2.4,2.4h-6.47Z"/>
        <path class="cls-2" d="M196.76,196.92h-6.47c-1.67,0-3.04-1.36-3.04-3.04s1.36-3.04,3.04-3.04h6.47c1.67,0,3.04,1.36,3.04,3.04s-1.36,3.04-3.04,3.04ZM190.29,192.13c-.97,0-1.76.79-1.76,1.76s.79,1.76,1.76,1.76h6.47c.97,0,1.76-.79,1.76-1.76s-.79-1.76-1.76-1.76h-6.47Z"/>
      </g>
      <g>
        <path class="cls-1" d="M213.79,196.28c-1.32,0-2.4-1.08-2.4-2.4s1.08-2.4,2.4-2.4h6.47c1.32,0,2.4,1.08,2.4,2.4s-1.08,2.4-2.4,2.4h-6.47Z"/>
        <path class="cls-2" d="M220.26,196.92h-6.47c-1.68,0-3.04-1.36-3.04-3.04s1.36-3.04,3.04-3.04h6.47c1.67,0,3.04,1.36,3.04,3.04s-1.36,3.04-3.04,3.04ZM213.79,192.13c-.97,0-1.76.79-1.76,1.76s.79,1.76,1.76,1.76h6.47c.97,0,1.76-.79,1.76-1.76s-.79-1.76-1.76-1.76h-6.47Z"/>
      </g>
      <g>
        <path class="cls-1" d="M236.83,196.28c-1.32,0-2.4-1.08-2.4-2.4s1.08-2.4,2.4-2.4h6.93c1.32,0,2.4,1.08,2.4,2.4s-1.08,2.4-2.4,2.4h-6.93Z"/>
        <path class="cls-2" d="M243.76,196.92h-6.93c-1.68,0-3.04-1.36-3.04-3.04s1.36-3.04,3.04-3.04h6.93c1.67,0,3.04,1.36,3.04,3.04s-1.36,3.04-3.04,3.04ZM236.83,192.13c-.97,0-1.76.79-1.76,1.76s.79,1.76,1.76,1.76h6.93c.97,0,1.76-.79,1.76-1.76s-.79-1.76-1.76-1.76h-6.93Z"/>
      </g>
    </g>
    <g>
      <path class="cls-1" d="M123.08,242.55c-.19,0-.38-.02-.56-.07-.63-.15-1.15-.53-1.49-1.08-.33-.55-.44-1.19-.29-1.82l7.81-32.56c.26-1.08,1.22-1.84,2.33-1.84.19,0,.38.02.56.07,1.28.31,2.08,1.6,1.77,2.89l-7.81,32.56c-.26,1.08-1.22,1.84-2.33,1.84Z"/>
      <path class="cls-2" d="M123.08,243.2c-.23,0-.47-.03-.71-.08-.79-.19-1.46-.67-1.89-1.36-.42-.7-.55-1.51-.36-2.3l7.81-32.56c.38-1.6,2.02-2.63,3.66-2.25,1.63.39,2.64,2.03,2.25,3.66l-7.81,32.56c-.33,1.37-1.54,2.33-2.95,2.33ZM130.89,205.83c-.82,0-1.52.55-1.71,1.35l-7.81,32.56c-.11.46-.04.93.21,1.33.24.4.63.68,1.09.79.99.24,1.89-.38,2.12-1.3l7.81-32.56c.23-.94-.36-1.89-1.29-2.12-.14-.03-.28-.05-.41-.05Z"/>
    </g>
    <g>
      <path class="cls-1" d="M176.92,242.55c-1.13,0-2.12-.81-2.34-1.92l-6.63-32.56c-.13-.63,0-1.26.35-1.8.35-.53.89-.9,1.52-1.02.17-.03.33-.05.49-.05,1.13,0,2.11.81,2.34,1.92l6.63,32.57c.26,1.29-.58,2.56-1.87,2.82-.16.03-.32.05-.48.05Z"/>
      <path class="cls-2" d="M176.92,243.19c-1.43,0-2.68-1.02-2.97-2.44l-6.63-32.56c-.16-.79,0-1.6.44-2.28.45-.68,1.13-1.14,1.93-1.3,1.67-.34,3.25.76,3.58,2.37l6.63,32.57c.33,1.64-.73,3.25-2.37,3.58-.2.04-.41.06-.61.06ZM170.3,205.83c-.12,0-.24.01-.36.04-.46.09-.85.36-1.11.75-.26.39-.35.86-.26,1.32l6.63,32.56c.19.93,1.12,1.56,2.07,1.38.95-.19,1.56-1.12,1.37-2.07l-6.63-32.57c-.17-.82-.88-1.41-1.71-1.41Z"/>
    </g>
    <g>
      <path class="cls-1" d="M104.19,242.55c-1.32,0-2.4-1.08-2.4-2.4s1.08-2.4,2.4-2.4h91.31c1.32,0,2.4,1.08,2.4,2.4s-1.08,2.4-2.4,2.4h-91.31Z"/>
      <path class="cls-2" d="M195.5,243.19h-91.31c-1.67,0-3.04-1.36-3.04-3.04s1.36-3.04,3.04-3.04h91.31c1.67,0,3.04,1.36,3.04,3.04s-1.36,3.04-3.04,3.04ZM104.19,238.4c-.97,0-1.76.79-1.76,1.76s.79,1.76,1.76,1.76h91.31c.97,0,1.76-.79,1.76-1.76s-.79-1.76-1.76-1.76h-91.31Z"/>
    </g>
    <g>
      <path class="cls-1" d="M42.57,209.99c-6.07,0-10.47-4.4-10.47-10.47V68.14c0-6,4.6-10.7,10.47-10.7h214.88c5.77,0,10.47,4.8,10.47,10.7v131.38c0,5.87-4.6,10.47-10.47,10.47H42.57ZM42.57,62.23c-3.73,0-5.68,2.97-5.68,5.91v131.38c0,3.45,2.23,5.68,5.68,5.68h214.88c3.18,0,5.68-2.49,5.68-5.68V68.14c0-3.2-2.6-5.91-5.68-5.91H42.57Z"/>
      <path class="cls-2" d="M257.44,210.63H42.57c-6.44,0-11.11-4.67-11.11-11.11V68.14c0-6.36,4.88-11.34,11.11-11.34h214.88c6.12,0,11.11,5.09,11.11,11.34v131.38c0,6.23-4.88,11.11-11.11,11.11ZM42.57,58.09c-5.51,0-9.83,4.42-9.83,10.06v131.38c0,5.69,4.13,9.83,9.83,9.83h214.88c5.51,0,9.83-4.32,9.83-9.83V68.14c0-5.55-4.41-10.06-9.83-10.06H42.57ZM257.44,205.84H42.57c-3.78,0-6.32-2.54-6.32-6.32V68.14c0-3.25,2.17-6.55,6.32-6.55h214.88c3.42,0,6.32,2.99,6.32,6.54v131.38c0,3.54-2.78,6.32-6.32,6.32ZM42.57,62.87c-3.31,0-5.04,2.65-5.04,5.27v131.38c0,3.11,1.93,5.04,5.04,5.04h214.88c2.82,0,5.04-2.21,5.04-5.04V68.14c0-2.86-2.31-5.27-5.04-5.27H42.57Z"/>
    </g>
    <g>
      <path class="cls-1" d="M185.55,113.93c-12.37,0-23.89-3.96-32.54-7.41-.59-.24-1.06-.69-1.31-1.27-.25-.59-.26-1.24-.03-1.84.36-.91,1.24-1.51,2.23-1.51.3,0,.6.06.88.17,12.26,4.89,21.78,7.07,30.86,7.07,10.53,0,20.63-3.07,30.88-9.38.38-.23.81-.36,1.26-.36.84,0,1.6.43,2.04,1.14.34.55.44,1.19.29,1.81-.15.62-.53,1.15-1.07,1.48-11.03,6.79-21.98,10.1-33.48,10.1ZM74.43,110.44c-.56,0-1.09-.19-1.52-.55-1.02-.84-1.16-2.35-.32-3.37,10.31-12.51,21.28-18.87,33.56-19.44.61-.03,1.21-.04,1.82-.04,10.72,0,21.34,4.17,31.29,8.44.59.25,1.04.72,1.28,1.31.24.59.23,1.24-.02,1.83-.38.88-1.25,1.46-2.21,1.46-.32,0-.64-.07-.94-.19-11.61-4.97-20.57-8.05-29.38-8.05-11.67,0-21.75,5.63-31.72,17.73-.46.56-1.14.88-1.85.88Z"/>
      <path class="cls-2" d="M185.55,114.57c-12.48,0-24.08-3.99-32.78-7.46-.75-.3-1.34-.87-1.66-1.61-.32-.75-.33-1.57-.03-2.33.46-1.16,1.57-1.91,2.82-1.91.38,0,.76.07,1.12.22,12.18,4.85,21.63,7.02,30.63,7.02,10.41,0,20.4-3.04,30.54-9.28.48-.29,1.03-.45,1.59-.45,1.06,0,2.03.54,2.58,1.45.43.69.56,1.51.37,2.3-.19.79-.67,1.46-1.36,1.88-11.13,6.86-22.19,10.19-33.82,10.19ZM153.9,102.54c-.72,0-1.37.43-1.63,1.1-.17.44-.17.92.02,1.35.18.43.53.76.96.93,8.6,3.43,20.04,7.37,32.31,7.37,11.38,0,22.23-3.27,33.15-10,.4-.25.68-.63.79-1.09.11-.46.03-.93-.21-1.33-.49-.8-1.61-1.07-2.41-.58-10.35,6.38-20.56,9.47-31.21,9.47-9.17,0-18.76-2.19-31.1-7.11-.21-.08-.43-.12-.65-.12ZM74.43,111.08c-.71,0-1.38-.24-1.93-.69-1.29-1.06-1.47-2.98-.41-4.28,10.43-12.66,21.56-19.1,34.03-19.67,11.45-.52,22.81,3.91,33.39,8.45.75.32,1.32.91,1.62,1.66.3.75.29,1.58-.03,2.32-.48,1.12-1.58,1.84-2.8,1.84-.41,0-.81-.08-1.19-.25-11.53-4.94-20.43-8-29.13-8-11.46,0-21.38,5.56-31.22,17.5-.58.71-1.44,1.11-2.35,1.11ZM107.97,87.67c-.6,0-1.19.01-1.79.04-12.08.56-22.91,6.84-33.1,19.21-.62.75-.51,1.86.24,2.47.73.6,1.88.48,2.47-.24,10.1-12.26,20.34-17.97,32.21-17.97,8.92,0,17.95,3.1,29.63,8.1.89.38,1.93-.06,2.3-.93.18-.43.19-.9.01-1.34-.17-.44-.51-.78-.94-.96-9.9-4.24-20.44-8.39-31.04-8.39Z"/>
    </g>
    <g>
      <path class="cls-1" d="M160.48,168.79c-1.26,0-2.29-.95-2.39-2.2l-3.19-39.18c-.07-.87.29-1.46.61-1.8.46-.5,1.14-.8,1.8-.8.48,0,.93.15,1.34.43l32.34,22.36c.88.61,1.25,1.74.9,2.75-.33.97-1.24,1.62-2.27,1.62h-.14s-18.42-1.08-18.42-1.08l-8.45,16.6c-.41.81-1.23,1.31-2.14,1.31ZM162.18,157.77l5.32-10.47c.4-.8,1.23-1.31,2.11-1.31.05,0,.1,0,.15,0l11.45.66-21.13-14.6,2.09,25.71Z"/>
      <path class="cls-2" d="M160.48,169.43c-1.59,0-2.9-1.2-3.03-2.79l-3.19-39.18c-.09-1.1.37-1.85.78-2.29,1-1.08,2.73-1.32,3.98-.46l32.34,22.36c1.11.77,1.58,2.21,1.15,3.49-.42,1.23-1.58,2.05-2.87,2.05h-.16s-18.02-1.06-18.02-1.06l-8.26,16.23c-.53,1.02-1.57,1.66-2.71,1.66ZM157.31,125.45c-.49,0-.99.22-1.33.59-.33.36-.48.8-.44,1.31l3.19,39.18c.08.92.83,1.61,1.75,1.61.67,0,1.27-.37,1.57-.96l8.64-16.97,18.96,1.11c.73,0,1.4-.48,1.64-1.18.25-.74-.02-1.57-.66-2.01l-32.34-22.36c-.31-.21-.63-.32-.98-.32ZM161.72,160.08l-2.38-29.32,24.12,16.67-13.85-.8c-.64,0-1.25.38-1.54.96l-6.35,12.49ZM160.83,133.35l1.8,22.11,4.3-8.45c.54-1.07,1.66-1.73,2.87-1.66l9.17.53-18.14-12.53Z"/>
    </g>
    <g>
      <path class="cls-1" d="M66.65,126.01c-1.32,0-2.4-1.08-2.4-2.4v-15.57c0-1.32,1.08-2.4,2.4-2.4h15.58c1.32,0,2.4,1.08,2.4,2.4v15.57c0,1.32-1.08,2.4-2.4,2.4h-15.58ZM69.04,121.22h10.79v-10.79h-10.79v10.79Z"/>
      <path class="cls-2" d="M82.22,126.65h-15.58c-1.67,0-3.04-1.36-3.04-3.04v-15.58c0-1.68,1.36-3.04,3.04-3.04h15.58c1.67,0,3.04,1.36,3.04,3.04v15.58c0,1.67-1.36,3.04-3.04,3.04ZM66.65,106.28c-.97,0-1.76.79-1.76,1.76v15.58c0,.97.79,1.76,1.76,1.76h15.58c.97,0,1.76-.79,1.76-1.76v-15.58c0-.97-.79-1.76-1.76-1.76h-15.58ZM80.46,121.86h-12.07v-12.07h12.07v12.07ZM69.68,120.58h9.5v-9.51h-9.5v9.51Z"/>
    </g>
    <g>
      <path class="cls-1" d="M217.78,111.98c-1.32,0-2.4-1.08-2.4-2.4v-15.58c0-1.32,1.08-2.4,2.4-2.4h15.58c1.32,0,2.4,1.08,2.4,2.4v15.58c0,1.32-1.08,2.4-2.4,2.4h-15.58ZM220.17,107.19h10.79v-10.79h-10.79v10.79Z"/>
      <path class="cls-2" d="M233.35,112.63h-15.58c-1.67,0-3.04-1.36-3.04-3.04v-15.58c0-1.67,1.36-3.04,3.04-3.04h15.58c1.68,0,3.04,1.36,3.04,3.04v15.58c0,1.67-1.36,3.04-3.04,3.04ZM217.78,92.25c-.97,0-1.76.79-1.76,1.76v15.58c0,.97.79,1.76,1.76,1.76h15.58c.97,0,1.76-.79,1.76-1.76v-15.58c0-.97-.79-1.76-1.76-1.76h-15.58ZM231.6,107.83h-12.07v-12.07h12.07v12.07ZM220.81,106.55h9.51v-9.5h-9.51v9.5Z"/>
    </g>
    <g>
      <path class="cls-1" d="M138.32,110.65c-1.32,0-2.4-1.08-2.4-2.4v-15.57c0-1.32,1.08-2.4,2.4-2.4h15.57c1.32,0,2.4,1.08,2.4,2.4v15.57c0,1.32-1.08,2.4-2.4,2.4h-15.57ZM140.72,105.86h10.78v-10.79h-10.78v10.79Z"/>
      <path class="cls-2" d="M153.89,111.29h-15.58c-1.67,0-3.04-1.36-3.04-3.04v-15.58c0-1.67,1.36-3.04,3.04-3.04h15.58c1.67,0,3.04,1.36,3.04,3.04v15.58c0,1.68-1.36,3.04-3.04,3.04ZM138.32,90.92c-.97,0-1.76.79-1.76,1.76v15.58c0,.97.79,1.76,1.76,1.76h15.58c.97,0,1.76-.79,1.76-1.76v-15.58c0-.97-.79-1.76-1.76-1.76h-15.58ZM152.14,106.5h-12.06v-12.07h12.06v12.07ZM141.36,105.22h9.5v-9.51h-9.5v9.51Z"/>
    </g>
    <g>
      <g>
        <g>
          <path class="cls-1" d="M74.43,110.44c-1.32,0-2.4-1.08-2.4-2.4v-14.72c0-1.32,1.08-2.4,2.4-2.4s2.4,1.08,2.4,2.4v14.72c0,1.32-1.08,2.4-2.4,2.4Z"/>
          <path class="cls-2" d="M74.43,111.08c-1.68,0-3.04-1.36-3.04-3.04v-14.72c0-1.68,1.36-3.04,3.04-3.04s3.04,1.36,3.04,3.04v14.72c0,1.67-1.36,3.04-3.04,3.04ZM74.43,91.56c-.97,0-1.76.79-1.76,1.76v14.72c0,.97.79,1.76,1.76,1.76s1.76-.79,1.76-1.76v-14.72c0-.97-.79-1.76-1.76-1.76Z"/>
        </g>
        <g>
          <path class="cls-1" d="M74.43,93.04c-2.3,0-4.17-1.87-4.17-4.17s1.87-4.17,4.17-4.17,4.17,1.87,4.17,4.17-1.87,4.17-4.17,4.17Z"/>
          <path class="cls-2" d="M74.43,93.69c-2.65,0-4.81-2.16-4.81-4.81s2.16-4.81,4.81-4.81,4.81,2.16,4.81,4.81-2.16,4.81-4.81,4.81ZM74.43,85.34c-1.95,0-3.53,1.58-3.53,3.53s1.58,3.53,3.53,3.53,3.53-1.58,3.53-3.53-1.58-3.53-3.53-3.53Z"/>
        </g>
      </g>
      <g>
        <g>
          <path class="cls-1" d="M74.43,140.74c-1.32,0-2.4-1.08-2.4-2.4v-14.72c0-1.32,1.08-2.4,2.4-2.4s2.4,1.08,2.4,2.4v14.72c0,1.32-1.08,2.4-2.4,2.4Z"/>
          <path class="cls-2" d="M74.43,141.38c-1.68,0-3.04-1.36-3.04-3.04v-14.72c0-1.68,1.36-3.04,3.04-3.04s3.04,1.36,3.04,3.04v14.72c0,1.67-1.36,3.04-3.04,3.04ZM74.43,121.86c-.97,0-1.76.79-1.76,1.76v14.72c0,.97.79,1.76,1.76,1.76s1.76-.79,1.76-1.76v-14.72c0-.97-.79-1.76-1.76-1.76Z"/>
        </g>
        <g>
          <path class="cls-1" d="M74.44,146.89c-2.05,0-3.78-1.47-4.11-3.49-.37-2.27,1.17-4.42,3.44-4.79.23-.04.46-.06.68-.06,2.05,0,3.77,1.47,4.11,3.49.18,1.1-.08,2.2-.72,3.11-.65.91-1.61,1.5-2.71,1.68-.23.04-.46.06-.68.06h0Z"/>
          <path class="cls-2" d="M74.44,147.53h0c-2.36,0-4.36-1.7-4.74-4.03-.43-2.62,1.35-5.1,3.96-5.53.26-.04.53-.06.79-.06,2.36,0,4.35,1.69,4.74,4.03.21,1.27-.09,2.54-.83,3.59s-1.86,1.74-3.12,1.94c-.26.04-.53.07-.79.07ZM74.44,139.19c-.19,0-.39.02-.58.05-1.92.32-3.22,2.14-2.91,4.06.31,1.9,2.14,3.22,4.06,2.91.93-.15,1.74-.66,2.29-1.43.55-.77.77-1.7.61-2.63-.28-1.71-1.74-2.96-3.47-2.96Z"/>
        </g>
      </g>
    </g>
    <g>
      <path class="cls-1" d="M225.95,96.4c-1.32,0-2.4-1.08-2.4-2.4v-13.59c0-1.32,1.08-2.4,2.4-2.4s2.4,1.08,2.4,2.4v13.6c0,1.32-1.08,2.39-2.4,2.39Z"/>
      <path class="cls-2" d="M225.95,97.04c-1.68,0-3.04-1.36-3.04-3.04v-13.59c0-1.68,1.36-3.04,3.04-3.04s3.04,1.36,3.04,3.04v13.6c0,1.67-1.37,3.03-3.04,3.03ZM225.95,78.66c-.97,0-1.76.79-1.76,1.76v13.59c0,.97.79,1.76,1.76,1.76s1.75-.79,1.76-1.75v-13.6c0-.97-.79-1.76-1.76-1.76Z"/>
    </g>
    <g>
      <path class="cls-1" d="M225.95,80.13c-2.3,0-4.17-1.87-4.17-4.17s1.87-4.17,4.17-4.17,4.17,1.87,4.17,4.17-1.87,4.17-4.17,4.17Z"/>
      <path class="cls-2" d="M225.95,80.78c-2.65,0-4.81-2.16-4.81-4.81s2.16-4.81,4.81-4.81,4.81,2.16,4.81,4.81-2.16,4.81-4.81,4.81ZM225.95,72.43c-1.95,0-3.53,1.58-3.53,3.53s1.58,3.53,3.53,3.53,3.53-1.58,3.53-3.53-1.58-3.53-3.53-3.53Z"/>
    </g>
    <g>
      <path class="cls-1" d="M225.95,127.26c-1.32,0-2.4-1.08-2.4-2.4v-15.27c0-1.32,1.08-2.4,2.4-2.4s2.4,1.08,2.4,2.4v15.27c0,1.32-1.08,2.4-2.4,2.4Z"/>
      <path class="cls-2" d="M225.95,127.9c-1.68,0-3.04-1.36-3.04-3.04v-15.27c0-1.68,1.36-3.04,3.04-3.04s3.04,1.36,3.04,3.04v15.27c0,1.68-1.37,3.04-3.04,3.04ZM225.95,107.83c-.97,0-1.76.79-1.76,1.76v15.27c0,.97.79,1.76,1.76,1.76s1.75-.79,1.76-1.76v-15.27c0-.97-.79-1.76-1.76-1.76Z"/>
    </g>
    <g>
      <path class="cls-1" d="M225.95,134.06c-2.3,0-4.17-1.87-4.17-4.17s1.87-4.17,4.17-4.17,4.17,1.87,4.17,4.17-1.87,4.17-4.17,4.17Z"/>
      <path class="cls-2" d="M225.95,134.7c-2.65,0-4.81-2.16-4.81-4.81s2.16-4.81,4.81-4.81,4.81,2.16,4.81,4.81-2.16,4.81-4.81,4.81ZM225.95,126.36c-1.95,0-3.53,1.58-3.53,3.53s1.58,3.53,3.53,3.53,3.53-1.58,3.53-3.53-1.58-3.53-3.53-3.53Z"/>
    </g>
  </g>
</svg>