<?xml version="1.0" encoding="UTF-8"?>
<svg id="Layer_1" data-name="Layer 1" fill="currentColor" xmlns="http://www.w3.org/2000/svg" viewBox="0 0 300 300">

  <g id="Layer_1-2" data-name="Layer 1">
    <g>
      <g>
        <path class="cls-1" d="M222.86,158.78c-1.13,0-2.05-.92-2.05-2.05s.92-2.05,2.05-2.05h5.01c1.13,0,2.05.92,2.05,2.05s-.92,2.05-2.05,2.05h-5.01Z"/>
        <path class="cls-2" d="M227.87,159.38h-5.01c-1.46,0-2.65-1.19-2.65-2.65s1.19-2.65,2.65-2.65h5.01c1.46,0,2.65,1.19,2.65,2.65s-1.19,2.65-2.65,2.65ZM222.86,155.27c-.8,0-1.46.65-1.46,1.46s.65,1.46,1.46,1.46h5.01c.8,0,1.46-.65,1.46-1.46s-.65-1.46-1.46-1.46h-5.01Z"/>
      </g>
      <g>
        <path class="cls-1" d="M241.06,158.78c-1.13,0-2.05-.92-2.05-2.05s.92-2.05,2.05-2.05h5.01c1.13,0,2.05.92,2.05,2.05s-.92,2.05-2.05,2.05h-5.01Z"/>
        <path class="cls-2" d="M246.08,159.38h-5.01c-1.46,0-2.65-1.19-2.65-2.65s1.19-2.65,2.65-2.65h5.01c1.46,0,2.65,1.19,2.65,2.65s-1.19,2.65-2.65,2.65ZM241.06,155.27c-.8,0-1.46.65-1.46,1.46s.65,1.46,1.46,1.46h5.01c.8,0,1.46-.65,1.46-1.46s-.65-1.46-1.46-1.46h-5.01Z"/>
      </g>
      <g>
        <path class="cls-1" d="M258.91,158.78c-1.13,0-2.05-.92-2.05-2.05s.92-2.05,2.05-2.05h5.37c1.13,0,2.05.92,2.05,2.05s-.92,2.05-2.05,2.05h-5.37Z"/>
        <path class="cls-2" d="M264.28,159.38h-5.37c-1.46,0-2.65-1.19-2.65-2.65s1.19-2.65,2.65-2.65h5.37c1.46,0,2.65,1.19,2.65,2.65s-1.19,2.65-2.65,2.65ZM258.91,155.27c-.8,0-1.46.65-1.46,1.46s.65,1.46,1.46,1.46h5.37c.8,0,1.46-.65,1.46-1.46s-.65-1.46-1.46-1.46h-5.37Z"/>
      </g>
    </g>
    <g>
      <path class="cls-1" d="M170.8,194.62c-.16,0-.32-.02-.48-.06-1.1-.26-1.78-1.37-1.52-2.48l6.05-25.22c.22-.93,1.04-1.57,2-1.57.16,0,.32.02.48.06.53.13.98.45,1.27.92.29.47.37,1.02.25,1.55l-6.05,25.22c-.22.93-1.05,1.58-2,1.58Z"/>
      <path class="cls-2" d="M170.8,195.22c-.21,0-.41-.02-.62-.07-1.42-.34-2.3-1.78-1.96-3.2l6.05-25.22c.29-1.2,1.35-2.03,2.58-2.03.21,0,.42.02.62.07.69.17,1.27.59,1.64,1.19.37.61.48,1.32.32,2.01l-6.05,25.22c-.29,1.2-1.35,2.04-2.58,2.04ZM176.85,165.89c-.68,0-1.26.46-1.42,1.12l-6.05,25.22c-.19.78.3,1.57,1.08,1.76.78.19,1.57-.31,1.75-1.08l6.05-25.22c.09-.38.03-.77-.17-1.1-.2-.33-.52-.56-.9-.65-.11-.03-.23-.04-.34-.04Z"/>
    </g>
    <g>
      <path class="cls-1" d="M212.5,194.62c-.97,0-1.81-.69-2.01-1.64l-5.14-25.22c-.22-1.11.49-2.19,1.6-2.42.14-.03.28-.04.42-.04.97,0,1.81.69,2,1.65l5.14,25.23c.22,1.11-.49,2.19-1.6,2.42-.13.03-.27.04-.41.04Z"/>
      <path class="cls-2" d="M212.5,195.22c-1.25,0-2.34-.89-2.59-2.12l-5.14-25.23c-.29-1.43.64-2.83,2.07-3.12,1.48-.3,2.84.67,3.12,2.07l5.14,25.22c.29,1.43-.64,2.83-2.07,3.12-.17.03-.35.05-.53.05ZM207.37,165.89c-.1,0-.2.01-.3.03-.78.16-1.29.93-1.13,1.71l5.14,25.22c.16.77.95,1.29,1.72,1.14.78-.16,1.29-.93,1.13-1.71l-5.14-25.22c-.14-.68-.73-1.17-1.42-1.17Z"/>
    </g>
    <g>
      <path class="cls-1" d="M156.17,194.62c-1.13,0-2.05-.92-2.05-2.05s.92-2.05,2.05-2.05h70.73c1.13,0,2.05.92,2.05,2.05s-.92,2.05-2.05,2.05h-70.73Z"/>
      <path class="cls-2" d="M226.9,195.22h-70.73c-1.46,0-2.65-1.19-2.65-2.65s1.19-2.65,2.65-2.65h70.73c1.46,0,2.65,1.19,2.65,2.65s-1.19,2.65-2.65,2.65ZM156.17,191.11c-.8,0-1.46.65-1.46,1.46s.65,1.46,1.46,1.46h70.73c.8,0,1.46-.65,1.46-1.46s-.65-1.46-1.46-1.46h-70.73Z"/>
    </g>
    <g>
      <g>
        <path class="cls-1" d="M163.26,96.58c-1.13,0-2.05-.92-2.05-2.05v-26.1c0-1.13.92-2.05,2.05-2.05h94.45c1.13,0,2.05.92,2.05,2.05v26.1c0,1.13-.92,2.05-2.05,2.05h-94.45ZM165.32,92.48h90.34v-22h-90.34v22Z"/>
        <path class="cls-2" d="M257.71,97.18h-94.45c-1.46,0-2.65-1.19-2.65-2.65v-26.1c0-1.46,1.19-2.65,2.65-2.65h94.45c1.46,0,2.65,1.19,2.65,2.65v26.1c0,1.46-1.19,2.65-2.65,2.65ZM163.26,66.97c-.8,0-1.46.65-1.46,1.46v26.1c0,.8.65,1.46,1.46,1.46h94.45c.8,0,1.45-.65,1.46-1.46v-26.09c0-.8-.65-1.46-1.46-1.46h-94.45ZM256.25,93.08h-91.53v-23.19h91.53v23.19ZM165.92,91.88h89.14v-20.8h-89.14v20.8Z"/>
      </g>
      <g>
        <path class="cls-1" d="M163.26,132.62c-1.13,0-2.05-.92-2.05-2.05v-22.37c0-1.13.92-2.05,2.05-2.05h22.37c1.13,0,2.05.92,2.05,2.05v22.37c0,1.13-.92,2.05-2.05,2.05h-22.37ZM165.32,128.52h18.26v-18.26h-18.26v18.26Z"/>
        <path class="cls-2" d="M185.63,133.21h-22.37c-1.46,0-2.65-1.19-2.65-2.65v-22.37c0-1.46,1.19-2.65,2.65-2.65h22.37c1.46,0,2.65,1.19,2.65,2.65v22.37c0,1.46-1.19,2.65-2.65,2.65ZM163.26,106.74c-.8,0-1.46.65-1.46,1.46v22.37c0,.8.65,1.46,1.46,1.46h22.37c.8,0,1.45-.65,1.46-1.46v-22.37c0-.8-.65-1.46-1.46-1.46h-22.37ZM184.18,129.11h-19.46v-19.46h19.46v19.46ZM165.92,127.92h17.07v-17.07h-17.07v17.07Z"/>
      </g>
      <g>
        <path class="cls-1" d="M199.3,132.62c-1.13,0-2.05-.92-2.05-2.05v-22.37c0-1.13.92-2.05,2.05-2.05h22.37c1.13,0,2.05.92,2.05,2.05v22.37c0,1.13-.92,2.05-2.05,2.05h-22.37ZM201.35,128.52h18.26v-18.26h-18.26v18.26Z"/>
        <path class="cls-2" d="M221.67,133.21h-22.37c-1.46,0-2.65-1.19-2.65-2.65v-22.37c0-1.46,1.19-2.65,2.65-2.65h22.37c1.46,0,2.65,1.19,2.65,2.65v22.37c0,1.46-1.19,2.65-2.65,2.65ZM199.3,106.74c-.8,0-1.46.65-1.46,1.46v22.37c0,.8.65,1.46,1.46,1.46h22.37c.8,0,1.46-.65,1.46-1.46v-22.37c0-.8-.65-1.46-1.46-1.46h-22.37ZM220.21,129.11h-19.46v-19.46h19.46v19.46ZM201.95,127.92h17.07v-17.07h-17.07v17.07Z"/>
      </g>
      <g>
        <path class="cls-1" d="M235.34,132.62c-1.13,0-2.05-.92-2.05-2.05v-22.37c0-1.13.92-2.05,2.05-2.05h22.37c1.13,0,2.05.92,2.05,2.05v22.37c0,1.13-.92,2.05-2.05,2.05h-22.37ZM237.4,128.52h18.26v-18.26h-18.26v18.26Z"/>
        <path class="cls-2" d="M257.71,133.21h-22.37c-1.46,0-2.65-1.19-2.65-2.65v-22.37c0-1.46,1.19-2.65,2.65-2.65h22.37c1.46,0,2.65,1.19,2.65,2.65v22.37c0,1.46-1.19,2.65-2.65,2.65ZM235.34,106.74c-.8,0-1.46.65-1.46,1.46v22.37c0,.8.65,1.46,1.46,1.46h22.37c.8,0,1.45-.65,1.46-1.46v-22.37c0-.8-.65-1.46-1.46-1.46h-22.37ZM256.25,129.11h-19.46v-19.46h19.46v19.46ZM237.99,127.92h17.07v-17.07h-17.07v17.07Z"/>
      </g>
    </g>
  </g>
  <g>
    <path class="cls-1" d="M274.88,50.84H108.43c-4.66,0-8.3,3.73-8.3,8.48v37.26h4.1v-37.26c0-2.18,1.44-4.38,4.2-4.38h166.44c2.28,0,4.2,2,4.2,4.38v101.77c0,2.36-1.85,4.2-4.2,4.2h-137.4v4.1h137.39c4.66,0,8.31-3.65,8.31-8.3V59.33c0-4.68-3.73-8.48-8.3-8.48Z"/>
    <path class="cls-2" d="M274.87,169.99h-137.99v-5.3h137.99c2.02,0,3.61-1.58,3.61-3.6V59.32c0-2.05-1.65-3.78-3.61-3.78H108.43c-2.37,0-3.61,1.91-3.61,3.79v37.85h-5.3v-37.85c0-5.09,3.91-9.08,8.9-9.08h166.44c4.91,0,8.9,4.07,8.9,9.08v101.76c0,4.99-3.91,8.9-8.91,8.9ZM138.08,168.8h136.79c4.32,0,7.71-3.38,7.71-7.71V59.33c0-4.35-3.46-7.89-7.71-7.89H108.43c-4.32,0-7.71,3.46-7.71,7.89v36.66h2.91v-36.66c0-2.47,1.65-4.98,4.8-4.98h166.44c2.6,0,4.8,2.28,4.8,4.97v101.77c0,2.69-2.11,4.8-4.8,4.8h-136.8v2.91Z"/>
  </g>
  <g>
    <g>
      <path class="cls-2" d="M129.33,236.87H36.65c-1.32,0-2.39-1.07-2.39-2.39v-127.91c0-1.32,1.07-2.39,2.39-2.39h92.68c1.32,0,2.39,1.07,2.39,2.39v127.91c0,1.32-1.07,2.39-2.39,2.39ZM39.04,232.09h87.9v-123.13H39.04v123.13Z"/>
      <path class="cls-2" d="M129.33,237.46H36.65c-1.65,0-2.99-1.34-2.99-2.99v-127.91c0-1.65,1.34-2.99,2.99-2.99h92.68c1.65,0,2.99,1.34,2.99,2.99v127.91c0,1.65-1.34,2.99-2.99,2.99ZM36.65,104.78c-.99,0-1.79.8-1.79,1.79v127.91c0,.99.8,1.79,1.79,1.79h92.68c.99,0,1.79-.8,1.79-1.79v-127.91c0-.99-.8-1.79-1.79-1.79H36.65ZM127.53,232.68H38.44v-124.32h89.09v124.32ZM39.63,231.49h86.7v-121.93H39.63v121.93Z"/>
    </g>
    <g>
      <path class="cls-2" d="M53.27,103.23c-.22,0-.44-.03-.65-.09-1.27-.36-2.01-1.68-1.65-2.95l1.87-6.56c.36-1.27,1.68-2.01,2.95-1.65l20.62,5.86c1.27.36,2.01,1.68,1.65,2.95s-1.68,2.01-2.95,1.65l-18.32-5.2-1.21,4.26c-.3,1.05-1.26,1.74-2.3,1.74Z"/>
      <path class="cls-2" d="M53.27,103.83c-.28,0-.55-.04-.82-.11-1.58-.45-2.51-2.11-2.06-3.69l1.87-6.56c.22-.77.72-1.41,1.42-1.79s1.5-.48,2.27-.26l20.62,5.86c.77.22,1.4.72,1.79,1.42.39.7.48,1.5.26,2.27s-.72,1.4-1.42,1.79c-.7.39-1.5.48-2.27.27l-17.74-5.04-1.05,3.69c-.36,1.28-1.54,2.17-2.87,2.17ZM55.13,92.48c-.3,0-.6.08-.87.23-.42.23-.72.62-.85,1.08l-1.87,6.56c-.27.95.28,1.94,1.23,2.21.92.26,1.95-.31,2.21-1.23l1.38-4.84,18.89,5.37c.46.13.94.08,1.36-.16.42-.23.72-.62.85-1.08.13-.46.08-.94-.16-1.36-.23-.42-.62-.72-1.08-.85l-20.62-5.86c-.16-.05-.33-.07-.5-.07Z"/>
    </g>
    <g>
      <path class="cls-2" d="M28.81,225.86c-.22,0-.44-.03-.65-.09l-9.6-2.73c-.61-.17-1.13-.58-1.43-1.14-.31-.55-.38-1.21-.21-1.82l9.6-33.79c.36-1.27,1.68-2.01,2.95-1.65,1.27.36,2.01,1.68,1.65,2.95l-8.94,31.49,7.3,2.07c1.27.36,2.01,1.68,1.65,2.95-.3,1.05-1.26,1.74-2.3,1.74Z"/>
      <path class="cls-2" d="M28.81,226.45c-.27,0-.55-.04-.82-.11l-9.6-2.73c-.77-.22-1.4-.72-1.79-1.42-.38-.69-.48-1.51-.26-2.27l9.6-33.79c.22-.77.72-1.41,1.42-1.79.7-.39,1.5-.48,2.27-.26.77.22,1.4.72,1.79,1.42s.48,1.5.26,2.27l-8.78,30.92,6.72,1.91c1.58.45,2.51,2.11,2.06,3.69-.36,1.28-1.55,2.17-2.87,2.17ZM28.8,185.16c-.3,0-.6.08-.87.23-.42.23-.72.62-.85,1.08l-9.6,33.79c-.13.45-.07.95.16,1.36.23.42.62.72,1.08.85l9.6,2.73c.95.27,1.95-.31,2.21-1.23.27-.95-.28-1.95-1.23-2.21l-7.87-2.24,9.11-32.06c.13-.46.08-.94-.16-1.36-.23-.42-.62-.72-1.08-.85-.16-.05-.33-.07-.49-.07Z"/>
    </g>
    <g>
      <path class="cls-2" d="M110.84,249.16c-.22,0-.44-.03-.65-.09l-24.31-6.91c-1.27-.36-2.01-1.68-1.65-2.95s1.67-2.01,2.95-1.65l22.01,6.25,1.14-4c.36-1.27,1.68-2.01,2.95-1.65,1.27.36,2.01,1.68,1.65,2.95l-1.79,6.3c-.3,1.05-1.26,1.74-2.3,1.74Z"/>
      <path class="cls-2" d="M110.84,249.76c-.27,0-.55-.04-.82-.11l-24.31-6.91c-1.58-.45-2.51-2.11-2.06-3.69.45-1.58,2.11-2.5,3.69-2.06l21.44,6.09.97-3.42c.45-1.58,2.11-2.51,3.69-2.06s2.51,2.11,2.06,3.69l-1.79,6.3c-.36,1.28-1.54,2.17-2.87,2.17ZM86.53,238.07c-.78,0-1.5.52-1.73,1.3-.27.95.28,1.95,1.23,2.21l24.31,6.91c.96.27,1.95-.31,2.21-1.23l1.79-6.3c.27-.95-.28-1.95-1.23-2.21-.95-.27-1.95.28-2.21,1.23l-1.3,4.57-22.59-6.42c-.16-.05-.33-.07-.49-.07Z"/>
    </g>
    <g>
      <path class="cls-2" d="M107.23,121.22h-48.49c-1.32,0-2.39-1.07-2.39-2.39s1.07-2.39,2.39-2.39h48.49c1.32,0,2.39,1.07,2.39,2.39s-1.07,2.39-2.39,2.39Z"/>
      <path class="cls-2" d="M107.23,121.81h-48.49c-1.65,0-2.99-1.34-2.99-2.99s1.34-2.99,2.99-2.99h48.49c1.65,0,2.99,1.34,2.99,2.99s-1.34,2.99-2.99,2.99ZM58.74,117.03c-.99,0-1.79.8-1.79,1.79s.8,1.79,1.79,1.79h48.49c.99,0,1.79-.8,1.79-1.79s-.8-1.79-1.79-1.79h-48.49Z"/>
    </g>
    <g>
      <g>
        <path class="cls-2" d="M77.1,164.16h-28.67c-1.32,0-2.39-1.07-2.39-2.39v-31.14c0-1.32,1.07-2.39,2.39-2.39h28.67c1.32,0,2.39,1.07,2.39,2.39v31.14c0,1.32-1.07,2.39-2.39,2.39ZM50.82,159.38h23.89v-26.36h-23.89v26.36Z"/>
        <path class="cls-2" d="M77.1,164.76h-28.67c-1.65,0-2.99-1.34-2.99-2.99v-31.14c0-1.65,1.34-2.99,2.99-2.99h28.67c1.65,0,2.99,1.34,2.99,2.99v31.14c0,1.65-1.34,2.99-2.99,2.99ZM48.43,128.84c-.99,0-1.79.8-1.79,1.79v31.14c0,.99.8,1.79,1.79,1.79h28.67c.99,0,1.79-.8,1.79-1.79v-31.14c0-.99-.8-1.79-1.79-1.79h-28.67ZM75.31,159.98h-25.08v-27.56h25.08v27.56ZM51.42,158.78h22.69v-25.17h-22.69v25.17Z"/>
      </g>
      <g>
        <path class="cls-2" d="M116.33,136.25h-26.48c-1.32,0-2.39-1.07-2.39-2.39s1.07-2.39,2.39-2.39h26.48c1.32,0,2.39,1.07,2.39,2.39s-1.07,2.39-2.39,2.39Z"/>
        <path class="cls-2" d="M116.33,136.85h-26.48c-1.65,0-2.99-1.34-2.99-2.99s1.34-2.99,2.99-2.99h26.48c1.65,0,2.99,1.34,2.99,2.99s-1.34,2.99-2.99,2.99ZM89.85,132.07c-.99,0-1.79.8-1.79,1.79s.8,1.79,1.79,1.79h26.48c.99,0,1.79-.8,1.79-1.79s-.8-1.79-1.79-1.79h-26.48Z"/>
      </g>
      <g>
        <path class="cls-2" d="M116.33,148.59h-26.48c-1.32,0-2.39-1.07-2.39-2.39s1.07-2.39,2.39-2.39h26.48c1.32,0,2.39,1.07,2.39,2.39s-1.07,2.39-2.39,2.39Z"/>
        <path class="cls-2" d="M116.33,149.19h-26.48c-1.65,0-2.99-1.34-2.99-2.99s1.34-2.99,2.99-2.99h26.48c1.65,0,2.99,1.34,2.99,2.99s-1.34,2.99-2.99,2.99ZM89.85,144.41c-.99,0-1.79.8-1.79,1.79s.8,1.79,1.79,1.79h26.48c.99,0,1.79-.8,1.79-1.79s-.8-1.79-1.79-1.79h-26.48Z"/>
      </g>
      <g>
        <path class="cls-2" d="M116.33,160.93h-26.48c-1.32,0-2.39-1.07-2.39-2.39s1.07-2.39,2.39-2.39h26.48c1.32,0,2.39,1.07,2.39,2.39s-1.07,2.39-2.39,2.39Z"/>
        <path class="cls-2" d="M116.33,161.52h-26.48c-1.65,0-2.99-1.34-2.99-2.99s1.34-2.99,2.99-2.99h26.48c1.65,0,2.99,1.34,2.99,2.99s-1.34,2.99-2.99,2.99ZM89.85,156.74c-.99,0-1.79.8-1.79,1.79s.8,1.79,1.79,1.79h26.48c.99,0,1.79-.8,1.79-1.79s-.8-1.79-1.79-1.79h-26.48Z"/>
      </g>
    </g>
    <g>
      <path class="cls-2" d="M116.33,177.19H48.43c-1.32,0-2.39-1.07-2.39-2.39s1.07-2.39,2.39-2.39h67.9c1.32,0,2.39,1.07,2.39,2.39s-1.07,2.39-2.39,2.39Z"/>
      <path class="cls-2" d="M116.33,177.79H48.43c-1.65,0-2.99-1.34-2.99-2.99s1.34-2.99,2.99-2.99h67.9c1.65,0,2.99,1.34,2.99,2.99s-1.34,2.99-2.99,2.99ZM48.43,173.01c-.99,0-1.79.8-1.79,1.79s.8,1.79,1.79,1.79h67.9c.99,0,1.79-.8,1.79-1.79s-.8-1.79-1.79-1.79H48.43Z"/>
    </g>
    <g>
      <path class="cls-2" d="M111.84,224.86h-55.41c-1.32,0-2.39-1.07-2.39-2.39s1.07-2.39,2.39-2.39h55.41c1.32,0,2.39,1.07,2.39,2.39s-1.07,2.39-2.39,2.39Z"/>
      <path class="cls-2" d="M111.84,225.46h-55.41c-1.65,0-2.99-1.34-2.99-2.99s1.34-2.99,2.99-2.99h55.41c1.65,0,2.99,1.34,2.99,2.99s-1.34,2.99-2.99,2.99ZM56.43,220.68c-.99,0-1.79.8-1.79,1.79s.8,1.79,1.79,1.79h55.41c.99,0,1.79-.8,1.79-1.79s-.8-1.79-1.79-1.79h-55.41Z"/>
    </g>
    <g>
      <g>
        <path class="cls-2" d="M116.76,212.01h-23.78c-1.32,0-2.39-1.07-2.39-2.39v-24.7c0-1.32,1.07-2.39,2.39-2.39h23.78c1.32,0,2.39,1.07,2.39,2.39v24.7c0,1.32-1.07,2.39-2.39,2.39ZM95.37,207.23h19v-19.92h-19v19.92Z"/>
        <path class="cls-2" d="M116.76,212.6h-23.78c-1.65,0-2.99-1.34-2.99-2.99v-24.7c0-1.65,1.34-2.99,2.99-2.99h23.78c1.65,0,2.99,1.34,2.99,2.99v24.7c0,1.65-1.34,2.99-2.99,2.99ZM92.98,183.13c-.99,0-1.79.8-1.79,1.79v24.7c0,.99.8,1.79,1.79,1.79h23.78c.99,0,1.79-.8,1.79-1.79v-24.7c0-.99-.8-1.79-1.79-1.79h-23.78ZM114.97,207.82h-20.2v-21.11h20.2v21.11ZM95.97,206.63h17.81v-18.72h-17.81v18.72Z"/>
      </g>
      <g>
        <g>
          <path class="cls-2" d="M75.05,189.34h-22.79c-1.32,0-2.39-1.07-2.39-2.39s1.07-2.39,2.39-2.39h22.79c1.32,0,2.39,1.07,2.39,2.39s-1.07,2.39-2.39,2.39Z"/>
          <path class="cls-2" d="M75.05,189.94h-22.79c-1.65,0-2.99-1.34-2.99-2.99s1.34-2.99,2.99-2.99h22.79c1.65,0,2.99,1.34,2.99,2.99s-1.34,2.99-2.99,2.99ZM52.27,185.16c-.99,0-1.79.8-1.79,1.79s.8,1.79,1.79,1.79h22.79c.99,0,1.79-.8,1.79-1.79s-.8-1.79-1.79-1.79h-22.79Z"/>
        </g>
        <g>
          <path class="cls-2" d="M75.05,199.66h-22.79c-1.32,0-2.39-1.07-2.39-2.39s1.07-2.39,2.39-2.39h22.79c1.32,0,2.39,1.07,2.39,2.39s-1.07,2.39-2.39,2.39Z"/>
          <path class="cls-2" d="M75.05,200.26h-22.79c-1.65,0-2.99-1.34-2.99-2.99s1.34-2.99,2.99-2.99h22.79c1.65,0,2.99,1.34,2.99,2.99s-1.34,2.99-2.99,2.99ZM52.27,195.47c-.99,0-1.79.8-1.79,1.79s.8,1.79,1.79,1.79h22.79c.99,0,1.79-.8,1.79-1.79s-.8-1.79-1.79-1.79h-22.79Z"/>
        </g>
        <g>
          <path class="cls-2" d="M75.05,209.97h-22.79c-1.32,0-2.39-1.07-2.39-2.39s1.07-2.39,2.39-2.39h22.79c1.32,0,2.39,1.07,2.39,2.39s-1.07,2.39-2.39,2.39Z"/>
          <path class="cls-2" d="M75.05,210.57h-22.79c-1.65,0-2.99-1.34-2.99-2.99s1.34-2.99,2.99-2.99h22.79c1.65,0,2.99,1.34,2.99,2.99s-1.34,2.99-2.99,2.99ZM52.27,205.79c-.99,0-1.79.8-1.79,1.79s.8,1.79,1.79,1.79h22.79c.99,0,1.79-.8,1.79-1.79s-.8-1.79-1.79-1.79h-22.79Z"/>
        </g>
      </g>
    </g>
  </g>
  <g>
    <path class="cls-1" d="M138.17,132.62v-4.1h9.91v-58.03h-20.44v25.95h-4.11v-28c0-1.13.92-2.05,2.05-2.05h24.54c1.13,0,2.05.92,2.05,2.05v62.13c0,1.13-.92,2.05-2.05,2.05h-11.97Z"/>
    <path class="cls-2" d="M150.14,133.21h-12.56v-5.3h9.91v-56.84h-19.24v25.95h-5.3v-28.6c0-1.46,1.19-2.65,2.65-2.65h24.54c1.46,0,2.65,1.19,2.65,2.65v62.13c0,1.46-1.19,2.65-2.65,2.65ZM138.77,132.02h11.37c.8,0,1.46-.65,1.46-1.46v-62.13c0-.8-.65-1.46-1.46-1.46h-24.54c-.8,0-1.46.65-1.46,1.46v27.4h2.91v-25.95h21.63v59.23h-9.91v2.91Z"/>
  </g>
  <g>
    <path class="cls-1" d="M281.13,144.06h-143.65v4.11h143.65c1.13,0,2.05-.92,2.05-2.05s-.92-2.05-2.05-2.05Z"/>
    <path class="cls-2" d="M281.13,148.76h-144.24v-5.3h144.24c1.46,0,2.65,1.19,2.65,2.65s-1.19,2.65-2.65,2.65ZM138.08,147.57h143.05c.8,0,1.46-.65,1.46-1.46s-.65-1.46-1.46-1.46h-143.05v2.91Z"/>
  </g>
</svg>