<?xml version="1.0" encoding="UTF-8"?>
<svg id="Layer_1"  fill="currentColor" data-name="Layer 1" xmlns="http://www.w3.org/2000/svg" viewBox="0 0 300 300">
  <g>
    <g>
      <g>
        <path class="cls-1" d="M176.51,195.86c-1.75,0-3.16-1.42-3.16-3.16s1.42-3.16,3.16-3.16h6.3c1.75,0,3.16,1.42,3.16,3.16s-1.42,3.16-3.16,3.16h-6.3Z"/>
        <path class="cls-2" d="M182.81,196.45h-6.3c-2.08,0-3.76-1.69-3.76-3.76s1.69-3.76,3.76-3.76h6.3c2.07,0,3.76,1.69,3.76,3.76s-1.69,3.76-3.76,3.76ZM176.51,190.13c-1.42,0-2.57,1.15-2.57,2.57s1.15,2.57,2.57,2.57h6.3c1.42,0,2.57-1.15,2.57-2.57s-1.15-2.57-2.57-2.57h-6.3Z"/>
      </g>
      <g>
        <path class="cls-1" d="M111.14,240.04c-.18,0-.36-.02-.54-.06-1.25-.3-2.03-1.56-1.73-2.81l7.6-31.68c.25-1.05,1.19-1.79,2.27-1.79.18,0,.37.02.55.06.6.14,1.11.52,1.44,1.05.33.53.43,1.16.28,1.76l-7.6,31.68c-.25,1.05-1.19,1.79-2.27,1.79Z"/>
        <path class="cls-2" d="M111.14,240.63c-.23,0-.46-.03-.68-.08-1.57-.38-2.54-1.96-2.17-3.53l7.6-31.68c.37-1.54,1.96-2.54,3.54-2.17.76.18,1.4.65,1.81,1.32.41.67.54,1.46.35,2.22l-7.6,31.68c-.32,1.32-1.49,2.25-2.85,2.25ZM118.74,204.29c-.81,0-1.5.55-1.69,1.33l-7.6,31.68c-.22.93.35,1.87,1.29,2.09.93.23,1.87-.37,2.09-1.29l7.6-31.68c.11-.45.03-.92-.21-1.31-.24-.39-.62-.67-1.07-.78-.13-.03-.27-.05-.41-.05Z"/>
      </g>
      <g>
        <path class="cls-1" d="M163.51,240.04c-1.1,0-2.06-.79-2.28-1.87l-6.45-31.68c-.25-1.26.56-2.49,1.82-2.75.16-.03.32-.05.48-.05,1.1,0,2.05.79,2.27,1.87l6.45,31.68c.25,1.26-.56,2.49-1.82,2.75-.15.03-.31.05-.47.05Z"/>
        <path class="cls-2" d="M163.51,240.64c-1.38,0-2.59-.99-2.87-2.35l-6.45-31.68c-.32-1.58.71-3.13,2.29-3.45.19-.04.39-.06.59-.06,1.38,0,2.58.99,2.86,2.35l6.45,31.68c.32,1.58-.71,3.13-2.29,3.45-.19.04-.39.06-.59.06ZM157.07,204.3c-.12,0-.24.01-.35.04-.94.19-1.55,1.11-1.36,2.04l6.45,31.68c.16.81.88,1.39,1.69,1.39.12,0,.24-.01.35-.03.93-.19,1.54-1.11,1.35-2.04l-6.45-31.68c-.16-.81-.87-1.39-1.69-1.39Z"/>
      </g>
      <g>
        <path class="cls-1" d="M92.76,240.03c-1.29,0-2.33-1.05-2.33-2.33s1.05-2.33,2.33-2.33h88.82c1.29,0,2.33,1.05,2.33,2.33s-1.05,2.33-2.33,2.33h-88.82Z"/>
        <path class="cls-2" d="M181.58,240.63h-88.82c-1.62,0-2.93-1.31-2.93-2.93s1.31-2.93,2.93-2.93h88.82c1.62,0,2.93,1.31,2.93,2.93s-1.31,2.93-2.93,2.93ZM92.76,235.97c-.96,0-1.74.78-1.74,1.74s.78,1.73,1.74,1.73h88.82c.96,0,1.74-.78,1.74-1.73s-.78-1.74-1.74-1.74h-88.82Z"/>
      </g>
      <g>
        <path class="cls-1" d="M202.53,203.7H32.81c-3.36,0-5.52-2.17-5.52-5.52v-127.8c0-2.86,1.9-5.75,5.52-5.75h209.03c2.99,0,5.52,2.63,5.52,5.74v14.32h4.66v-14.31c0-5.74-4.57-10.41-10.18-10.41H32.81c-5.71,0-10.18,4.57-10.18,10.41v127.8c0,5.9,4.28,10.18,10.18,10.18h169.71v-4.66Z"/>
        <path class="cls-2" d="M203.12,208.95H32.81c-6.25,0-10.78-4.53-10.78-10.78v-127.8c0-6.17,4.74-11,10.78-11h209.03c5.94,0,10.78,4.94,10.78,11v14.91h-5.85v-14.92c0-2.79-2.26-5.15-4.93-5.15H32.81c-3.23,0-4.92,2.6-4.92,5.16v127.8c0,3.04,1.89,4.93,4.92,4.93h170.31v5.85ZM32.81,60.56c-5.37,0-9.58,4.31-9.58,9.81v127.8c0,5.55,4.03,9.58,9.58,9.58h169.12v-3.46H32.81c-3.66,0-6.12-2.46-6.12-6.12v-127.8c0-3.15,2.1-6.35,6.12-6.35h209.03c3.32,0,6.12,2.9,6.12,6.34v13.72h3.46v-13.71c0-5.41-4.3-9.81-9.58-9.81H32.81Z"/>
      </g>
    </g>
    <g>
      <g>
        <path class="cls-2" d="M269.22,231.61h-44.48c-8.25,0-14.96-6.71-14.96-14.96v-108.14c0-8.25,6.71-14.96,14.96-14.96h44.48c8.25,0,14.96,6.71,14.96,14.96v108.14c0,8.25-6.71,14.96-14.96,14.96ZM224.74,98.35c-5.61,0-10.17,4.56-10.17,10.17v108.14c0,5.61,4.56,10.17,10.17,10.17h44.48c5.61,0,10.18-4.56,10.18-10.17v-108.14c0-5.61-4.56-10.17-10.18-10.17h-44.48Z"/>
        <path class="cls-2" d="M269.22,232.21h-44.48c-8.58,0-15.55-6.98-15.55-15.55v-108.14c0-8.58,6.98-15.55,15.55-15.55h44.48c8.58,0,15.55,6.98,15.55,15.55v108.14c0,8.58-6.98,15.55-15.55,15.55ZM224.74,94.16c-7.92,0-14.36,6.44-14.36,14.36v108.14c0,7.92,6.44,14.36,14.36,14.36h44.48c7.92,0,14.36-6.44,14.36-14.36v-108.14c0-7.92-6.44-14.36-14.36-14.36h-44.48ZM269.22,227.43h-44.48c-5.94,0-10.77-4.83-10.77-10.77v-108.14c0-5.94,4.83-10.77,10.77-10.77h44.48c5.94,0,10.77,4.83,10.77,10.77v108.14c0,5.94-4.83,10.77-10.77,10.77ZM224.74,98.94c-5.28,0-9.58,4.3-9.58,9.58v108.14c0,5.28,4.3,9.58,9.58,9.58h44.48c5.28,0,9.58-4.3,9.58-9.58v-108.14c0-5.28-4.3-9.58-9.58-9.58h-44.48Z"/>
      </g>
      <g>
        <path class="cls-2" d="M229.85,216.18c-1.32,0-2.39-1.07-2.39-2.39v-5.81c0-1.32,1.07-2.39,2.39-2.39s2.39,1.07,2.39,2.39v5.81c0,1.32-1.07,2.39-2.39,2.39Z"/>
        <path class="cls-2" d="M229.85,216.78c-1.65,0-2.99-1.34-2.99-2.99v-5.81c0-1.65,1.34-2.99,2.99-2.99s2.99,1.34,2.99,2.99v5.81c0,1.65-1.34,2.99-2.99,2.99ZM229.85,206.18c-.99,0-1.79.8-1.79,1.79v5.81c0,.99.8,1.79,1.79,1.79s1.79-.8,1.79-1.79v-5.81c0-.99-.8-1.79-1.79-1.79Z"/>
      </g>
      <g>
        <path class="cls-2" d="M242.52,216.18c-1.32,0-2.39-1.07-2.39-2.39v-5.81c0-1.32,1.07-2.39,2.39-2.39s2.39,1.07,2.39,2.39v5.81c0,1.32-1.07,2.39-2.39,2.39Z"/>
        <path class="cls-2" d="M242.52,216.78c-1.65,0-2.99-1.34-2.99-2.99v-5.81c0-1.65,1.34-2.99,2.99-2.99s2.99,1.34,2.99,2.99v5.81c0,1.65-1.34,2.99-2.99,2.99ZM242.52,206.18c-.99,0-1.79.8-1.79,1.79v5.81c0,.99.8,1.79,1.79,1.79s1.79-.8,1.79-1.79v-5.81c0-.99-.8-1.79-1.79-1.79Z"/>
      </g>
    </g>
    <g>
      <path class="cls-1" d="M202.53,177.03H24.96c-1.29,0-2.33,1.05-2.33,2.33s1.05,2.33,2.33,2.33h177.57v-4.67Z"/>
      <path class="cls-2" d="M203.12,182.29H24.96c-1.62,0-2.93-1.31-2.93-2.93s1.31-2.93,2.93-2.93h178.17v5.86ZM24.96,177.63c-.96,0-1.74.78-1.74,1.73s.78,1.74,1.74,1.74h176.97v-3.47H24.96Z"/>
    </g>
  </g>
  <g>
    <g>
      <path class="cls-2" d="M139.86,149.83c-9.05,0-17.79-3.59-24.2-10.01-6.82-6.82-10.45-16.27-9.96-25.93.88-17.26,15.08-31.47,32.35-32.35,9.69-.49,19.11,3.14,25.93,9.96s10.45,16.27,9.96,25.93c-.88,17.26-15.08,31.47-32.35,32.35-.58.03-1.16.04-1.73.04ZM139.77,86.5c-.49,0-.99.01-1.48.04-14.73.75-26.86,12.87-27.61,27.61-.42,8.25,2.68,16.32,8.5,22.15,5.82,5.82,13.91,8.93,22.14,8.5,14.73-.75,26.86-12.87,27.61-27.61h0c.42-8.25-2.68-16.32-8.5-22.15-5.47-5.47-12.94-8.54-20.67-8.54Z"/>
      <path class="cls-2" d="M130.3,135.65c-.76,0-1.53-.2-2.23-.6-1.41-.81-2.25-2.26-2.25-3.89v-31.31c0-1.63.84-3.08,2.25-3.89s3.09-.8,4.49.03l26.66,15.65c1.38.81,2.21,2.26,2.21,3.86s-.83,3.05-2.21,3.86l-26.66,15.65c-.71.42-1.49.62-2.27.62ZM130.82,100.77v29.48l25.11-14.74-25.11-14.74Z"/>
    </g>
    <path class="cls-2" d="M105.28,164.01h-36.62c-1.38,0-2.5-1.12-2.5-2.5s1.12-2.5,2.5-2.5h36.62c1.38,0,2.5,1.12,2.5,2.5s-1.12,2.5-2.5,2.5Z"/>
    <path class="cls-2" d="M197.64,164.01h-80.5c-1.38,0-2.5-1.12-2.5-2.5s1.12-2.5,2.5-2.5h80.5c1.38,0,2.5,1.12,2.5,2.5s-1.12,2.5-2.5,2.5Z"/>
    <path class="cls-2" d="M105.28,169.12c-1.38,0-2.5-1.12-2.5-2.5v-10.22c0-1.38,1.12-2.5,2.5-2.5s2.5,1.12,2.5,2.5v10.22c0,1.38-1.12,2.5-2.5,2.5Z"/>
    <path class="cls-2" d="M56.74,169.12c-1.38,0-2.5-1.12-2.5-2.5v-10.22c0-1.38,1.12-2.5,2.5-2.5s2.5,1.12,2.5,2.5v10.22c0,1.38-1.12,2.5-2.5,2.5Z"/>
    <path class="cls-2" d="M46.38,169.12c-1.38,0-2.5-1.12-2.5-2.5v-10.22c0-1.38,1.12-2.5,2.5-2.5s2.5,1.12,2.5,2.5v10.22c0,1.38-1.12,2.5-2.5,2.5Z"/>
  </g>
  <g>
    <path class="cls-2" d="M247.06,177.47c-6.22,0-12.22-2.47-16.63-6.88-4.69-4.69-7.18-11.18-6.85-17.82.6-11.86,10.37-21.63,22.23-22.23,6.63-.34,13.13,2.16,17.82,6.85s7.18,11.18,6.85,17.82h0c-.6,11.87-10.37,21.63-22.23,22.23-.4.02-.79.03-1.19.03ZM247.01,134.7c-.33,0-.65,0-.98.02-9.75.49-17.77,8.52-18.26,18.26-.28,5.46,1.77,10.8,5.63,14.65s9.19,5.9,14.65,5.63c9.75-.49,17.77-8.52,18.26-18.26.28-5.46-1.77-10.8-5.63-14.65-3.62-3.62-8.56-5.65-13.67-5.65ZM268.39,155.1h0,0Z"/>
    <path class="cls-2" d="M240.6,167.89c-.59,0-1.18-.15-1.7-.45-1.06-.61-1.72-1.75-1.72-2.97v-21.15c0-1.23.66-2.37,1.72-2.97,1.06-.61,2.38-.6,3.44.02l18.01,10.57c1.06.62,1.69,1.73,1.69,2.96s-.63,2.33-1.69,2.96l-18.01,10.57c-.53.31-1.13.47-1.73.47ZM241.36,144.64v18.51l15.76-9.25-15.76-9.25Z"/>
  </g>
</svg>