<?xml version="1.0" encoding="UTF-8"?>
<svg id="Layer_1" fill="currentColor" data-name="Layer 1" xmlns="http://www.w3.org/2000/svg" viewBox="0 0 300 300">
  <g>
    <g>
      <path class="cls-1" d="M194.99,223.31c-1.25,0-2.27-1.02-2.27-2.27v-43.81h-19.99v43.81c0,1.25-1.02,2.27-2.27,2.27s-2.27-1.02-2.27-2.27v-46.08c0-1.25,1.02-2.27,2.27-2.27h24.53c1.25,0,2.27,1.02,2.27,2.27v46.08c0,1.25-1.02,2.27-2.27,2.27Z"/>
      <path class="cls-1" d="M194.99,223.91c-1.58,0-2.87-1.29-2.87-2.87v-43.21h-18.79v43.21c0,1.58-1.29,2.87-2.87,2.87s-2.87-1.29-2.87-2.87v-46.08c0-1.58,1.29-2.87,2.87-2.87h24.53c1.58,0,2.87,1.29,2.87,2.87v46.08c0,1.58-1.29,2.87-2.87,2.87ZM172.13,176.64h21.18v44.4c0,.92.75,1.67,1.67,1.67s1.67-.75,1.67-1.67v-46.08c0-.92-.75-1.67-1.67-1.67h-24.53c-.92,0-1.67.75-1.67,1.67v46.08c0,.92.75,1.67,1.67,1.67s1.67-.75,1.67-1.67v-44.4Z"/>
    </g>
    <g>
      <path class="cls-1" d="M269.22,194.5h-61.33c-1.25,0-2.27-1.02-2.27-2.27s1.02-2.27,2.27-2.27h61.33c1.25,0,2.27,1.02,2.27,2.27s-1.02,2.27-2.27,2.27Z"/>
      <path class="cls-1" d="M269.22,195.1h-61.33c-1.58,0-2.87-1.29-2.87-2.87s1.29-2.87,2.87-2.87h61.33c1.58,0,2.87,1.29,2.87,2.87s-1.29,2.87-2.87,2.87ZM207.89,190.56c-.92,0-1.67.75-1.67,1.67s.75,1.67,1.67,1.67h61.33c.92,0,1.67-.75,1.67-1.67s-.75-1.67-1.67-1.67h-61.33Z"/>
    </g>
    <g>
      <g>
        <path class="cls-1" d="M130.45,194.5c-1.25,0-2.27-1.02-2.27-2.27v-17.27c0-1.25,1.02-2.27,2.27-2.27s2.27,1.02,2.27,2.27v17.27c0,1.25-1.02,2.27-2.27,2.27Z"/>
        <path class="cls-1" d="M130.45,195.1c-1.58,0-2.87-1.29-2.87-2.87v-17.27c0-1.58,1.29-2.87,2.87-2.87s2.87,1.29,2.87,2.87v17.27c0,1.58-1.29,2.87-2.87,2.87ZM130.45,173.29c-.92,0-1.67.75-1.67,1.67v17.27c0,.92.75,1.67,1.67,1.67s1.67-.75,1.67-1.67v-17.27c0-.92-.75-1.67-1.67-1.67Z"/>
      </g>
      <g>
        <path class="cls-1" d="M238.96,194.5c-1.25,0-2.27-1.02-2.27-2.27v-17.27c0-1.25,1.02-2.27,2.27-2.27s2.27,1.02,2.27,2.27v17.27c0,1.25-1.02,2.27-2.27,2.27Z"/>
        <path class="cls-1" d="M238.96,195.1c-1.58,0-2.87-1.29-2.87-2.87v-17.27c0-1.58,1.29-2.87,2.87-2.87s2.87,1.29,2.87,2.87v17.27c0,1.58-1.29,2.87-2.87,2.87ZM238.96,173.29c-.92,0-1.67.75-1.67,1.67v17.27c0,.92.75,1.67,1.67,1.67s1.67-.75,1.67-1.67v-17.27c0-.92-.75-1.67-1.67-1.67Z"/>
      </g>
    </g>
    <g>
      <g>
        <g>
          <path class="cls-1" d="M250.62,91.63c-1.25,0-2.27-1.02-2.27-2.27v-12.23c0-1.25,1.02-2.27,2.27-2.27s2.27,1.02,2.27,2.27v12.23c0,1.25-1.02,2.27-2.27,2.27Z"/>
          <path class="cls-1" d="M250.62,92.22c-1.58,0-2.87-1.29-2.87-2.87v-12.23c0-1.58,1.29-2.87,2.87-2.87s2.87,1.29,2.87,2.87v12.23c0,1.58-1.29,2.87-2.87,2.87ZM250.62,75.45c-.92,0-1.67.75-1.67,1.67v12.23c0,.92.75,1.67,1.67,1.67s1.67-.75,1.67-1.67v-12.23c0-.92-.75-1.67-1.67-1.67Z"/>
        </g>
        <g>
          <path class="cls-1" d="M258.28,92.48h-15.31c-1.25,0-2.27-1.02-2.27-2.27s1.02-2.27,2.27-2.27h15.31c1.25,0,2.27,1.02,2.27,2.27s-1.02,2.27-2.27,2.27Z"/>
          <path class="cls-1" d="M258.28,93.08h-15.31c-1.58,0-2.87-1.29-2.87-2.87s1.29-2.87,2.87-2.87h15.31c1.58,0,2.87,1.29,2.87,2.87s-1.29,2.87-2.87,2.87ZM242.97,88.54c-.92,0-1.67.75-1.67,1.67s.75,1.67,1.67,1.67h15.31c.92,0,1.67-.75,1.67-1.67s-.75-1.67-1.67-1.67h-15.31Z"/>
        </g>
      </g>
      <g>
        <g>
          <path class="cls-1" d="M184.7,91.63c-1.25,0-2.27-1.02-2.27-2.27v-12.23c0-1.25,1.02-2.27,2.27-2.27s2.27,1.02,2.27,2.27v12.23c0,1.25-1.02,2.27-2.27,2.27Z"/>
          <path class="cls-1" d="M184.7,92.22c-1.58,0-2.87-1.29-2.87-2.87v-12.23c0-1.58,1.29-2.87,2.87-2.87s2.87,1.29,2.87,2.87v12.23c0,1.58-1.29,2.87-2.87,2.87ZM184.7,75.45c-.92,0-1.67.75-1.67,1.67v12.23c0,.92.75,1.67,1.67,1.67s1.67-.75,1.67-1.67v-12.23c0-.92-.75-1.67-1.67-1.67Z"/>
        </g>
        <g>
          <path class="cls-1" d="M192.36,92.48h-15.31c-1.25,0-2.27-1.02-2.27-2.27s1.02-2.27,2.27-2.27h15.31c1.25,0,2.27,1.02,2.27,2.27s-1.02,2.27-2.27,2.27Z"/>
          <path class="cls-1" d="M192.36,93.08h-15.31c-1.58,0-2.87-1.29-2.87-2.87s1.29-2.87,2.87-2.87h15.31c1.58,0,2.87,1.29,2.87,2.87s-1.29,2.87-2.87,2.87ZM177.05,88.54c-.92,0-1.67.75-1.67,1.67s.75,1.67,1.67,1.67h15.31c.92,0,1.67-.75,1.67-1.67s-.75-1.67-1.67-1.67h-15.31Z"/>
        </g>
      </g>
      <g>
        <g>
          <path class="cls-1" d="M118.79,91.63c-1.25,0-2.27-1.02-2.27-2.27v-12.23c0-1.25,1.02-2.27,2.27-2.27s2.27,1.02,2.27,2.27v12.23c0,1.25-1.02,2.27-2.27,2.27Z"/>
          <path class="cls-1" d="M118.79,92.22c-1.58,0-2.87-1.29-2.87-2.87v-12.23c0-1.58,1.29-2.87,2.87-2.87s2.87,1.29,2.87,2.87v12.23c0,1.58-1.29,2.87-2.87,2.87ZM118.79,75.45c-.92,0-1.67.75-1.67,1.67v12.23c0,.92.75,1.67,1.67,1.67s1.67-.75,1.67-1.67v-12.23c0-.92-.75-1.67-1.67-1.67Z"/>
        </g>
        <g>
          <path class="cls-1" d="M126.44,92.48h-15.31c-1.25,0-2.27-1.02-2.27-2.27s1.02-2.27,2.27-2.27h15.31c1.25,0,2.27,1.02,2.27,2.27s-1.02,2.27-2.27,2.27Z"/>
          <path class="cls-1" d="M126.44,93.08h-15.31c-1.58,0-2.87-1.29-2.87-2.87s1.29-2.87,2.87-2.87h15.31c1.58,0,2.87,1.29,2.87,2.87s-1.29,2.87-2.87,2.87ZM111.13,88.54c-.92,0-1.67.75-1.67,1.67s.75,1.67,1.67,1.67h15.31c.92,0,1.67-.75,1.67-1.67s-.75-1.67-1.67-1.67h-15.31Z"/>
        </g>
      </g>
    </g>
    <g>
      <path class="cls-1" d="M262.99,156.95h-67.02c-1.25,0-2.27-1.02-2.27-2.27v-37.14c0-1.25,1.02-2.27,2.27-2.27h67.02c1.25,0,2.27,1.02,2.27,2.27v37.14c0,.6-.24,1.18-.67,1.61-.43.43-1,.66-1.61.66ZM198.24,152.41h62.48s0-32.6,0-32.6h-62.48v32.6Z"/>
      <path class="cls-1" d="M262.99,157.55h-67.02c-1.58,0-2.87-1.29-2.87-2.87v-37.14c0-1.58,1.29-2.87,2.87-2.87h67.02c1.58,0,2.87,1.29,2.87,2.87v37.14c0,.77-.3,1.49-.84,2.03-.54.54-1.26.84-2.03.84ZM195.97,115.87c-.92,0-1.67.75-1.67,1.67v37.14c0,.92.75,1.67,1.67,1.67h67.02c.45,0,.87-.17,1.18-.49.32-.32.49-.74.49-1.18v-37.14c0-.92-.75-1.67-1.67-1.67h-67.02ZM261.32,153.01h-63.67v-33.79h63.67v33.79ZM198.84,151.81h61.28s0-31.4,0-31.4h-61.28v31.4Z"/>
    </g>
  </g>
  <g>
    <path class="cls-1" d="M279.82,74.24H89.59c-1.25,0-2.27,1.02-2.27,2.27v21.04h4.54v-18.77h185.69v93.91H127.59l.1,4.54h152.14c1.25,0,2.27-1.02,2.27-2.27v-98.46c0-1.25-1.02-2.27-2.27-2.27Z"/>
    <path class="cls-1" d="M279.82,177.83H127.1l-.13-5.74h149.98v-92.72H92.45v18.77h-5.74v-21.63c0-1.58,1.29-2.87,2.87-2.87h190.24c1.58,0,2.87,1.29,2.87,2.87v98.46c0,1.58-1.29,2.87-2.87,2.87ZM128.27,176.64h151.55c.92,0,1.67-.75,1.67-1.67v-98.46c0-.92-.75-1.67-1.67-1.67H89.59c-.92,0-1.67.75-1.67,1.67v20.44h3.35v-18.77h186.89v95.11h-149.95l.07,3.35Z"/>
  </g>
  <g>
    <g>
      <path class="cls-1" d="M110.96,216.73h-57.66c-7.09,0-12.86-5.77-12.86-12.86v-99.73c0-1.25,1.02-2.27,2.27-2.27h68.25c5.42,0,9.83,4.41,9.83,9.83v95.2c0,5.42-4.41,9.83-9.83,9.83ZM44.98,106.41v97.46c0,4.58,3.73,8.31,8.31,8.31h57.66c2.91,0,5.28-2.37,5.28-5.28v-95.2c0-2.91-2.37-5.29-5.28-5.29H44.98Z"/>
      <path class="cls-1" d="M110.96,217.33h-57.66c-7.42,0-13.45-6.04-13.45-13.45v-99.73c0-1.58,1.29-2.87,2.87-2.87h68.25c5.75,0,10.42,4.68,10.42,10.42v95.2c0,5.75-4.68,10.42-10.42,10.42ZM42.71,102.47c-.92,0-1.67.75-1.67,1.67v99.73c0,6.76,5.5,12.26,12.26,12.26h57.66c5.09,0,9.23-4.14,9.23-9.23v-95.2c0-5.09-4.14-9.23-9.23-9.23H42.71ZM110.96,212.79h-57.66c-4.91,0-8.91-4-8.91-8.91v-98.06h66.58c3.24,0,5.88,2.64,5.88,5.88v95.2c0,3.24-2.64,5.88-5.88,5.88ZM45.58,107.01v96.86c0,4.25,3.46,7.72,7.72,7.72h57.66c2.58,0,4.69-2.1,4.69-4.69v-95.2c0-2.58-2.1-4.69-4.69-4.69H45.58Z"/>
    </g>
    <g>
      <path class="cls-1" d="M31.44,225.76c-7.46,0-13.54-6.07-13.54-13.54v-108.69c0-3.62,1.41-7.01,3.96-9.57,2.56-2.56,5.96-3.97,9.57-3.97,7.46,0,13.54,6.07,13.54,13.54v106.25c0,1.25-1.02,2.32-2.27,2.32s-2.27-.97-2.27-2.22v-106.35c0-4.96-4.03-9-9-9-2.4,0-4.66.94-6.36,2.64-1.7,1.7-2.63,3.96-2.63,6.36v108.69c0,4.96,4.03,9,9,9,1.25,0,2.27,1.02,2.27,2.27s-1.02,2.27-2.27,2.27Z"/>
      <path class="cls-1" d="M31.44,226.36c-7.79,0-14.14-6.34-14.14-14.13v-108.69c0-3.78,1.47-7.32,4.14-9.99,2.67-2.67,6.22-4.14,10-4.14,7.79,0,14.13,6.34,14.13,14.13v106.25c0,1.61-1.29,2.92-2.87,2.92s-2.87-1.24-2.87-2.82v-106.35c0-4.63-3.77-8.4-8.4-8.4-2.24,0-4.35.87-5.94,2.46-1.59,1.58-2.46,3.69-2.46,5.94v108.69c0,4.63,3.77,8.4,8.4,8.4,1.58,0,2.87,1.29,2.87,2.87s-1.29,2.87-2.87,2.87ZM31.44,90.6c-3.46,0-6.71,1.35-9.15,3.79-2.44,2.44-3.79,5.69-3.79,9.15v108.69c0,7.13,5.8,12.94,12.94,12.94.92,0,1.67-.75,1.67-1.67s-.75-1.67-1.67-1.67c-5.29,0-9.59-4.3-9.59-9.59v-108.69c0-2.56,1-4.97,2.81-6.78,1.81-1.81,4.22-2.81,6.78-2.81,5.29,0,9.59,4.3,9.59,9.59v106.35c0,.91.74,1.63,1.67,1.63s1.67-.79,1.67-1.72v-106.25c0-7.13-5.8-12.94-12.94-12.94Z"/>
    </g>
    <g>
      <path class="cls-1" d="M42.71,212.06c-1.25,0-2.27-1.02-2.27-2.27,0-4.96-4.03-8.99-8.99-8.99s-8.99,4.03-8.99,8.99c0,1.25-1.02,2.27-2.27,2.27s-2.27-1.02-2.27-2.27c0-7.46,6.07-13.54,13.54-13.54s13.54,6.07,13.54,13.54c0,1.25-1.02,2.27-2.27,2.27Z"/>
      <path class="cls-1" d="M42.71,212.66c-1.58,0-2.87-1.29-2.87-2.87,0-4.63-3.77-8.4-8.4-8.4s-8.4,3.77-8.4,8.4c0,1.58-1.29,2.87-2.87,2.87s-2.87-1.29-2.87-2.87c0-7.79,6.34-14.13,14.13-14.13s14.13,6.34,14.13,14.13c0,1.58-1.29,2.87-2.87,2.87ZM31.44,200.2c5.29,0,9.59,4.3,9.59,9.59,0,.92.75,1.67,1.67,1.67s1.67-.75,1.67-1.67c0-7.13-5.8-12.94-12.94-12.94s-12.94,5.8-12.94,12.94c0,.92.75,1.67,1.67,1.67s1.67-.75,1.67-1.67c0-5.29,4.3-9.59,9.59-9.59Z"/>
    </g>
    <g>
      <path class="cls-1" d="M99.41,225.76H31.44c-1.25,0-2.27-1.02-2.27-2.27s1.02-2.27,2.27-2.27h67.97c.55,0,1-.45,1-1v-1.24c0-1.25,1.02-2.27,2.27-2.27s2.27,1.02,2.27,2.27v1.24c0,3.06-2.49,5.54-5.54,5.54Z"/>
      <path class="cls-1" d="M99.41,226.36H31.44c-1.58,0-2.87-1.29-2.87-2.87s1.29-2.87,2.87-2.87h67.97c.22,0,.4-.18.4-.4v-1.24c0-1.58,1.29-2.87,2.87-2.87s2.87,1.29,2.87,2.87v1.24c0,3.39-2.75,6.14-6.14,6.14ZM31.44,221.81c-.92,0-1.67.75-1.67,1.67s.75,1.67,1.67,1.67h67.97c2.73,0,4.94-2.22,4.94-4.94v-1.24c0-.92-.75-1.67-1.67-1.67s-1.67.75-1.67,1.67v1.24c0,.88-.72,1.6-1.6,1.6H31.44Z"/>
    </g>
    <g>
      <path class="cls-1" d="M99.7,117.67h-36.73c-1.25,0-2.27-1.02-2.27-2.27s1.02-2.27,2.27-2.27h36.73c1.25,0,2.27,1.02,2.27,2.27s-1.02,2.27-2.27,2.27Z"/>
      <path class="cls-1" d="M99.7,118.27h-36.73c-1.58,0-2.87-1.29-2.87-2.87s1.29-2.87,2.87-2.87h36.73c1.58,0,2.87,1.29,2.87,2.87s-1.29,2.87-2.87,2.87ZM62.97,113.73c-.92,0-1.67.75-1.67,1.67s.75,1.67,1.67,1.67h36.73c.92,0,1.67-.75,1.67-1.67s-.75-1.67-1.67-1.67h-36.73Z"/>
    </g>
    <g>
      <path class="cls-1" d="M102.68,176.36h-44.15c-1.25,0-2.27-1.02-2.27-2.27s1.02-2.27,2.27-2.27h44.15c1.25,0,2.27,1.02,2.27,2.27s-1.02,2.27-2.27,2.27Z"/>
      <path class="cls-1" d="M102.69,176.95h-44.15c-1.58,0-2.87-1.29-2.87-2.87s1.29-2.87,2.87-2.87h44.15c1.58,0,2.87,1.29,2.87,2.87s-1.29,2.87-2.87,2.87ZM58.54,172.41c-.92,0-1.67.75-1.67,1.67s.75,1.67,1.67,1.67h44.15c.92,0,1.67-.75,1.67-1.67s-.75-1.67-1.67-1.67h-44.15Z"/>
    </g>
    <g>
      <g>
        <path class="cls-1" d="M102.68,190.63h-20.29c-1.25,0-2.27-1.02-2.27-2.27s1.02-2.27,2.27-2.27h20.29c1.25,0,2.27,1.02,2.27,2.27s-1.02,2.27-2.27,2.27Z"/>
        <path class="cls-1" d="M102.69,191.23h-20.29c-1.58,0-2.87-1.29-2.87-2.87s1.29-2.87,2.87-2.87h20.29c1.58,0,2.87,1.29,2.87,2.87s-1.29,2.87-2.87,2.87ZM82.39,186.69c-.92,0-1.67.75-1.67,1.67s.75,1.67,1.67,1.67h20.29c.92,0,1.67-.75,1.67-1.67s-.75-1.67-1.67-1.67h-20.29Z"/>
      </g>
      <g>
        <path class="cls-1" d="M102.68,202.81h-20.29c-1.25,0-2.27-1.02-2.27-2.27s1.02-2.27,2.27-2.27h20.29c1.25,0,2.27,1.02,2.27,2.27s-1.02,2.27-2.27,2.27Z"/>
        <path class="cls-1" d="M102.69,203.41h-20.29c-1.58,0-2.87-1.29-2.87-2.87s1.29-2.87,2.87-2.87h20.29c1.58,0,2.87,1.29,2.87,2.87s-1.29,2.87-2.87,2.87ZM82.39,198.87c-.92,0-1.67.75-1.67,1.67s.75,1.67,1.67,1.67h20.29c.92,0,1.67-.75,1.67-1.67s-.75-1.67-1.67-1.67h-20.29Z"/>
      </g>
    </g>
    <g>
      <path class="cls-1" d="M74.46,205.17h-20.9c-1.25,0-2.27-1.02-2.27-2.27v-16.9c0-1.25,1.02-2.27,2.27-2.27h20.9c1.25,0,2.27,1.02,2.27,2.27v16.9c0,1.25-1.02,2.27-2.27,2.27ZM55.83,200.63h16.36v-12.36h-16.36v12.36Z"/>
      <path class="cls-1" d="M74.46,205.77h-20.9c-1.58,0-2.87-1.29-2.87-2.87v-16.9c0-1.58,1.29-2.87,2.87-2.87h20.9c1.58,0,2.87,1.29,2.87,2.87v16.9c0,1.58-1.29,2.87-2.87,2.87ZM53.56,184.33c-.92,0-1.67.75-1.67,1.67v16.9c0,.92.75,1.67,1.67,1.67h20.9c.92,0,1.67-.75,1.67-1.67v-16.9c0-.92-.75-1.67-1.67-1.67h-20.9ZM72.78,201.23h-17.55v-13.56h17.55v13.56ZM56.43,200.03h15.16v-11.17h-15.16v11.17Z"/>
    </g>
    <g>
      <g>
        <path class="cls-1" d="M109.12,163.35h-55.56c-1.25,0-2.27-1.02-2.27-2.27v-34.95c0-1.25,1.02-2.27,2.27-2.27h55.56c1.25,0,2.27,1.02,2.27,2.27v34.95c0,1.25-1.02,2.27-2.27,2.27ZM55.83,158.81h51.02v-30.41h-51.02v30.41Z"/>
        <path class="cls-1" d="M109.12,163.95h-55.56c-1.58,0-2.87-1.29-2.87-2.87v-34.95c0-1.58,1.29-2.87,2.87-2.87h55.56c1.58,0,2.87,1.29,2.87,2.87v34.95c0,1.58-1.29,2.87-2.87,2.87ZM53.56,124.46c-.92,0-1.67.75-1.67,1.67v34.95c0,.92.75,1.67,1.67,1.67h55.56c.92,0,1.67-.75,1.67-1.67v-34.95c0-.92-.75-1.67-1.67-1.67h-55.56ZM107.45,159.41h-52.22v-31.6h52.22v31.6ZM56.43,158.21h49.83v-29.21h-49.83v29.21Z"/>
      </g>
      <g>
        <path class="cls-1" d="M65.87,144.77c-4.23,0-7.67-3.44-7.67-7.67s3.44-7.67,7.67-7.67,7.67,3.44,7.67,7.67-3.44,7.67-7.67,7.67ZM65.87,133.98c-1.72,0-3.12,1.4-3.12,3.13s1.4,3.12,3.12,3.12,3.12-1.4,3.12-3.12-1.4-3.13-3.12-3.13Z"/>
        <path class="cls-1" d="M65.87,145.37c-4.56,0-8.26-3.71-8.26-8.26s3.71-8.26,8.26-8.26,8.26,3.71,8.26,8.26-3.71,8.26-8.26,8.26ZM65.87,130.04c-3.9,0-7.07,3.17-7.07,7.07s3.17,7.07,7.07,7.07,7.07-3.17,7.07-7.07-3.17-7.07-7.07-7.07ZM65.87,140.83c-2.05,0-3.72-1.67-3.72-3.72s1.67-3.72,3.72-3.72,3.72,1.67,3.72,3.72-1.67,3.72-3.72,3.72ZM65.87,134.58c-1.39,0-2.53,1.13-2.53,2.53s1.13,2.53,2.53,2.53,2.53-1.13,2.53-2.53-1.13-2.53-2.53-2.53Z"/>
      </g>
      <g>
        <path class="cls-1" d="M96.24,163.35c-.77,0-1.52-.39-1.95-1.1l-8.03-13.36c-.24-.4-.62-.48-.82-.5-.2,0-.58.02-.87.39l-10.69,13.69c-.77.99-2.2,1.16-3.19.39-.99-.77-1.16-2.2-.39-3.19l10.69-13.69c1.13-1.45,2.89-2.24,4.73-2.13,1.83.11,3.49,1.12,4.43,2.69l8.03,13.36c.65,1.07.3,2.47-.78,3.12-.37.22-.77.33-1.17.33Z"/>
        <path class="cls-1" d="M96.24,163.95c-1,0-1.95-.53-2.46-1.39l-8.03-13.36s-.12-.19-.34-.21c-.23.01-.31.09-.37.17l-10.68,13.69c-.47.6-1.15.99-1.91,1.08-.75.1-1.51-.11-2.11-.59-.6-.47-.99-1.15-1.08-1.91-.09-.76.11-1.51.59-2.12l10.69-13.69c1.25-1.6,3.21-2.49,5.24-2.36,2.03.12,3.86,1.24,4.91,2.98l8.03,13.36c.39.66.51,1.43.32,2.17-.18.74-.65,1.37-1.31,1.76-.45.27-.96.41-1.47.41ZM85.41,147.8s.04,0,.07,0c.56.03,1.03.32,1.31.79l8.03,13.36c.46.77,1.52,1.04,2.29.57.79-.48,1.05-1.5.57-2.3l-8.03-13.36c-.84-1.4-2.32-2.3-3.96-2.4-1.65-.11-3.21.61-4.22,1.9l-10.69,13.69c-.27.35-.4.79-.34,1.23s.28.84.63,1.11c.35.28.79.4,1.23.34.44-.05.84-.28,1.12-.63l10.68-13.69c.32-.4.78-.62,1.3-.62Z"/>
      </g>
      <g>
        <path class="cls-1" d="M90.73,154.17c-.6,0-1.19-.23-1.64-.7-.87-.91-.84-2.34.07-3.21l18.39-17.63c.91-.87,2.34-.84,3.21.07.87.91.84,2.34-.07,3.21l-18.39,17.63c-.44.42-1.01.63-1.57.63Z"/>
        <path class="cls-1" d="M90.73,154.77c-.79,0-1.52-.31-2.07-.88-1.09-1.14-1.05-2.96.09-4.05l18.39-17.63c.55-.53,1.28-.84,2.05-.8.77.02,1.48.33,2.01.88,1.09,1.14,1.05,2.96-.09,4.05l-18.39,17.63c-.54.51-1.24.8-1.98.8ZM109.12,132.6c-.43,0-.84.16-1.16.47l-18.39,17.63c-.67.64-.69,1.7-.05,2.37.62.65,1.72.67,2.37.05l18.39-17.63c.67-.64.69-1.7.05-2.37-.31-.32-.72-.51-1.17-.52h-.04Z"/>
      </g>
    </g>
  </g>
  <g>
    <path class="cls-1" d="M178.04,115.27h-51.75l.1,4.54h51.64c1.25,0,2.27-1.02,2.27-2.27s-1.02-2.27-2.27-2.27Z"/>
    <path class="cls-1" d="M178.04,120.41h-52.23l-.13-5.74h52.36c1.58,0,2.87,1.29,2.87,2.87s-1.29,2.87-2.87,2.87ZM126.98,119.21h51.06c.92,0,1.67-.75,1.67-1.67s-.75-1.67-1.67-1.67h-51.13l.07,3.35Z"/>
  </g>
  <g>
    <path class="cls-1" d="M162.39,133.84h-35.67l.1,4.54h35.57c1.25,0,2.27-1.02,2.27-2.27s-1.02-2.27-2.27-2.27Z"/>
    <path class="cls-1" d="M162.39,138.98h-36.16l-.13-5.74h36.29c1.58,0,2.87,1.29,2.87,2.87s-1.29,2.87-2.87,2.87ZM127.4,137.78h34.99c.92,0,1.67-.75,1.67-1.67s-.75-1.67-1.67-1.67h-35.06l.08,3.35Z"/>
  </g>
  <g>
    <path class="cls-1" d="M147.31,152.41h-20.18l.1,4.54h20.08c1.25,0,2.27-1.02,2.27-2.27s-1.02-2.27-2.27-2.27Z"/>
    <path class="cls-1" d="M147.31,157.55h-20.66l-.13-5.74h20.79c1.58,0,2.87,1.29,2.87,2.87s-1.29,2.87-2.87,2.87ZM127.82,156.35h19.49c.92,0,1.67-.75,1.67-1.67s-.75-1.67-1.67-1.67h-19.57l.07,3.35Z"/>
  </g>
  <g>
    <path class="cls-1" d="M157.55,189.96h-29.58l.1,4.54h29.48c1.25,0,2.27-1.02,2.27-2.27s-1.02-2.27-2.27-2.27Z"/>
    <path class="cls-1" d="M157.55,195.1h-30.06l-.13-5.74h30.19c1.58,0,2.87,1.29,2.87,2.87s-1.29,2.87-2.87,2.87ZM128.66,193.91h28.89c.92,0,1.67-.75,1.67-1.67s-.75-1.67-1.67-1.67h-28.97l.08,3.35Z"/>
  </g>
</svg>