<?xml version="1.0" encoding="UTF-8"?>
<svg id="Layer_1"  fill="currentColor" data-name="Layer 1" xmlns="http://www.w3.org/2000/svg" viewBox="0 0 300 300">
  <g>
    <g>
      <path class="cls-1" d="M175.75,195.86c-1.75,0-3.16-1.42-3.16-3.16s1.42-3.16,3.16-3.16h6.3c1.75,0,3.16,1.42,3.16,3.16s-1.42,3.16-3.16,3.16h-6.3Z"/>
      <path class="cls-2" d="M182.05,196.45h-6.3c-2.08,0-3.76-1.69-3.76-3.76s1.69-3.76,3.76-3.76h6.3c2.07,0,3.76,1.69,3.76,3.76s-1.69,3.76-3.76,3.76ZM175.75,190.13c-1.42,0-2.57,1.15-2.57,2.57s1.15,2.57,2.57,2.57h6.3c1.42,0,2.57-1.15,2.57-2.57s-1.15-2.57-2.57-2.57h-6.3Z"/>
    </g>
    <g>
      <path class="cls-1" d="M110.38,240.04c-.18,0-.36-.02-.54-.06-1.25-.3-2.03-1.56-1.73-2.81l7.6-31.68c.25-1.05,1.19-1.79,2.27-1.79.18,0,.37.02.55.06.6.14,1.11.52,1.44,1.05.33.53.43,1.16.28,1.76l-7.6,31.68c-.25,1.05-1.19,1.79-2.27,1.79Z"/>
      <path class="cls-2" d="M110.38,240.63c-.23,0-.46-.03-.68-.08-.76-.18-1.4-.65-1.81-1.32s-.54-1.46-.35-2.22l7.6-31.68c.37-1.54,1.96-2.54,3.54-2.17.76.18,1.4.65,1.81,1.32.41.67.54,1.46.35,2.22l-7.6,31.68c-.32,1.32-1.49,2.25-2.85,2.25ZM117.98,204.29c-.81,0-1.5.55-1.69,1.33l-7.6,31.68c-.22.93.35,1.87,1.29,2.09.93.23,1.87-.37,2.09-1.29l7.6-31.68c.11-.45.03-.92-.21-1.31-.24-.39-.62-.67-1.07-.78-.13-.03-.27-.05-.41-.05Z"/>
    </g>
    <g>
      <path class="cls-1" d="M162.75,240.04c-1.1,0-2.06-.79-2.28-1.87l-6.45-31.68c-.25-1.26.56-2.49,1.82-2.75.16-.03.32-.05.48-.05,1.1,0,2.05.79,2.27,1.87l6.45,31.68c.25,1.26-.56,2.49-1.82,2.75-.15.03-.31.05-.47.05Z"/>
      <path class="cls-2" d="M162.75,240.64c-1.38,0-2.59-.99-2.87-2.35l-6.45-31.68c-.32-1.58.71-3.13,2.29-3.45.19-.04.39-.06.59-.06,1.38,0,2.58.99,2.86,2.35l6.45,31.68c.32,1.58-.71,3.13-2.29,3.45-.19.04-.39.06-.59.06ZM156.31,204.3c-.12,0-.24.01-.35.04-.94.19-1.55,1.11-1.36,2.04l6.45,31.68c.16.81.88,1.39,1.69,1.39.12,0,.24-.01.35-.03.93-.19,1.54-1.11,1.35-2.04l-6.45-31.68c-.16-.81-.87-1.39-1.69-1.39Z"/>
    </g>
    <g>
      <path class="cls-1" d="M92,240.03c-1.29,0-2.33-1.05-2.33-2.33s1.05-2.33,2.33-2.33h88.82c1.29,0,2.33,1.05,2.33,2.33s-1.05,2.33-2.33,2.33h-88.82Z"/>
      <path class="cls-2" d="M180.83,240.63h-88.82c-1.62,0-2.93-1.31-2.93-2.93s1.31-2.93,2.93-2.93h88.82c1.62,0,2.93,1.31,2.93,2.93s-1.31,2.93-2.93,2.93ZM92,235.97c-.96,0-1.74.78-1.74,1.74s.78,1.73,1.74,1.73h88.82c.96,0,1.74-.78,1.74-1.73s-.78-1.74-1.74-1.74h-88.82Z"/>
    </g>
    <g>
      <path class="cls-1" d="M201.77,203.7H32.05c-3.36,0-5.52-2.17-5.52-5.52v-127.8c0-2.86,1.9-5.75,5.52-5.75h209.03c2.99,0,5.52,2.63,5.52,5.74v14.32h4.66v-14.31c0-5.74-4.57-10.41-10.18-10.41H32.05c-5.71,0-10.18,4.57-10.18,10.41v127.8c0,5.9,4.28,10.18,10.18,10.18h169.71v-4.66Z"/>
      <path class="cls-2" d="M202.37,208.95H32.05c-6.25,0-10.78-4.53-10.78-10.78v-127.8c0-6.17,4.74-11,10.78-11h209.03c5.94,0,10.78,4.94,10.78,11v14.91h-5.85v-14.92c0-2.79-2.26-5.15-4.93-5.15H32.05c-3.23,0-4.92,2.6-4.92,5.16v127.8c0,3.04,1.89,4.93,4.92,4.93h170.31v5.85ZM32.05,60.56c-5.37,0-9.58,4.31-9.58,9.81v127.8c0,5.55,4.03,9.58,9.58,9.58h169.12v-3.46H32.05c-3.66,0-6.12-2.46-6.12-6.12v-127.8c0-3.15,2.1-6.35,6.12-6.35h209.03c3.32,0,6.12,2.9,6.12,6.34v13.72h3.46v-13.71c0-5.41-4.3-9.81-9.58-9.81H32.05Z"/>
    </g>
  </g>
  <g>
    <g>
      <path class="cls-2" d="M268.46,231.61h-44.48c-8.25,0-14.96-6.71-14.96-14.96v-108.14c0-8.25,6.71-14.96,14.96-14.96h44.48c8.25,0,14.96,6.71,14.96,14.96v108.14c0,8.25-6.71,14.96-14.96,14.96ZM223.98,98.35c-5.61,0-10.17,4.56-10.17,10.17v108.14c0,5.61,4.56,10.17,10.17,10.17h44.48c5.61,0,10.18-4.56,10.18-10.17v-108.14c0-5.61-4.56-10.17-10.18-10.17h-44.48Z"/>
      <path class="cls-2" d="M268.46,232.21h-44.48c-8.58,0-15.55-6.98-15.55-15.55v-108.14c0-8.58,6.98-15.55,15.55-15.55h44.48c8.58,0,15.55,6.98,15.55,15.55v108.14c0,8.58-6.98,15.55-15.55,15.55ZM223.98,94.16c-7.92,0-14.36,6.44-14.36,14.36v108.14c0,7.92,6.44,14.36,14.36,14.36h44.48c7.92,0,14.36-6.44,14.36-14.36v-108.14c0-7.92-6.44-14.36-14.36-14.36h-44.48ZM268.46,227.43h-44.48c-5.94,0-10.77-4.83-10.77-10.77v-108.14c0-5.94,4.83-10.77,10.77-10.77h44.48c5.94,0,10.77,4.83,10.77,10.77v108.14c0,5.94-4.83,10.77-10.77,10.77ZM223.98,98.94c-5.28,0-9.58,4.3-9.58,9.58v108.14c0,5.28,4.3,9.58,9.58,9.58h44.48c5.28,0,9.58-4.3,9.58-9.58v-108.14c0-5.28-4.3-9.58-9.58-9.58h-44.48Z"/>
    </g>
    <g>
      <path class="cls-2" d="M264.21,149.57h-35.97c-1.32,0-2.39-1.07-2.39-2.39s1.07-2.39,2.39-2.39h35.97c1.32,0,2.39,1.07,2.39,2.39s-1.07,2.39-2.39,2.39Z"/>
      <path class="cls-2" d="M264.21,150.17h-35.97c-1.65,0-2.99-1.34-2.99-2.99s1.34-2.99,2.99-2.99h35.97c1.65,0,2.99,1.34,2.99,2.99s-1.34,2.99-2.99,2.99ZM228.24,145.39c-.99,0-1.79.8-1.79,1.79s.8,1.79,1.79,1.79h35.97c.99,0,1.79-.8,1.79-1.79s-.8-1.79-1.79-1.79h-35.97Z"/>
    </g>
    <g>
      <path class="cls-2" d="M264.21,129.66h-35.97c-1.32,0-2.39-1.07-2.39-2.39s1.07-2.39,2.39-2.39h35.97c1.32,0,2.39,1.07,2.39,2.39s-1.07,2.39-2.39,2.39Z"/>
      <path class="cls-2" d="M264.21,130.26h-35.97c-1.65,0-2.99-1.34-2.99-2.99s1.34-2.99,2.99-2.99h35.97c1.65,0,2.99,1.34,2.99,2.99s-1.34,2.99-2.99,2.99ZM228.24,125.48c-.99,0-1.79.8-1.79,1.79s.8,1.79,1.79,1.79h35.97c.99,0,1.79-.8,1.79-1.79s-.8-1.79-1.79-1.79h-35.97Z"/>
    </g>
    <g>
      <path class="cls-2" d="M229.09,216.18c-1.32,0-2.39-1.07-2.39-2.39v-5.81c0-1.32,1.07-2.39,2.39-2.39s2.39,1.07,2.39,2.39v5.81c0,1.32-1.07,2.39-2.39,2.39Z"/>
      <path class="cls-2" d="M229.09,216.78c-1.65,0-2.99-1.34-2.99-2.99v-5.81c0-1.65,1.34-2.99,2.99-2.99s2.99,1.34,2.99,2.99v5.81c0,1.65-1.34,2.99-2.99,2.99ZM229.09,206.18c-.99,0-1.79.8-1.79,1.79v5.81c0,.99.8,1.79,1.79,1.79s1.79-.8,1.79-1.79v-5.81c0-.99-.8-1.79-1.79-1.79Z"/>
    </g>
    <g>
      <path class="cls-2" d="M241.76,216.18c-1.32,0-2.39-1.07-2.39-2.39v-5.81c0-1.32,1.07-2.39,2.39-2.39s2.39,1.07,2.39,2.39v5.81c0,1.32-1.07,2.39-2.39,2.39Z"/>
      <path class="cls-2" d="M241.76,216.78c-1.65,0-2.99-1.34-2.99-2.99v-5.81c0-1.65,1.34-2.99,2.99-2.99s2.99,1.34,2.99,2.99v5.81c0,1.65-1.34,2.99-2.99,2.99ZM241.76,206.18c-.99,0-1.79.8-1.79,1.79v5.81c0,.99.8,1.79,1.79,1.79s1.79-.8,1.79-1.79v-5.81c0-.99-.8-1.79-1.79-1.79Z"/>
    </g>
    <g>
      <path class="cls-2" d="M192.99,164.59H64.15c-1.32,0-2.39-1.07-2.39-2.39s1.07-2.39,2.39-2.39h128.84c1.32,0,2.39,1.07,2.39,2.39s-1.07,2.39-2.39,2.39Z"/>
      <path class="cls-2" d="M192.99,165.19H64.15c-1.65,0-2.99-1.34-2.99-2.99s1.34-2.99,2.99-2.99h128.84c1.65,0,2.99,1.34,2.99,2.99s-1.34,2.99-2.99,2.99ZM64.15,160.41c-.99,0-1.79.8-1.79,1.79s.8,1.79,1.79,1.79h128.84c.99,0,1.79-.8,1.79-1.79s-.8-1.79-1.79-1.79H64.15Z"/>
    </g>
    <g>
      <path class="cls-2" d="M128.58,145.76c-.16,0-.32-.02-.48-.05-1.29-.26-2.13-1.52-1.87-2.82l12.16-59.89c.26-1.29,1.52-2.13,2.82-1.87,1.29.26,2.13,1.52,1.87,2.82l-12.16,59.89c-.23,1.13-1.23,1.92-2.34,1.92Z"/>
      <path class="cls-2" d="M128.58,146.35c-.2,0-.4-.02-.6-.06-1.61-.33-2.66-1.91-2.33-3.52l12.16-59.89c.16-.78.61-1.46,1.28-1.9.67-.44,1.47-.59,2.25-.44,1.61.33,2.66,1.91,2.33,3.52l-12.16,59.89c-.28,1.39-1.51,2.39-2.93,2.39ZM140.73,81.68c-.35,0-.69.1-.99.3-.4.26-.67.67-.77,1.14l-12.16,59.89c-.1.47,0,.95.26,1.35.26.4.67.67,1.14.77.95.21,1.92-.45,2.11-1.4l12.16-59.89c.2-.97-.43-1.92-1.4-2.11-.12-.02-.24-.04-.36-.04Z"/>
    </g>
    <g>
      <path class="cls-2" d="M157.75,140.39c-.53,0-1.06-.18-1.51-.54-1.02-.83-1.18-2.34-.35-3.36l18.98-23.33-18.98-23.33c-.83-1.02-.68-2.53.35-3.36,1.02-.83,2.53-.68,3.36.35l20.2,24.84c.71.88.71,2.14,0,3.02l-20.2,24.84c-.47.58-1.16.88-1.86.88Z"/>
      <path class="cls-2" d="M157.75,140.99c-.68,0-1.35-.24-1.88-.67-.62-.5-1.01-1.22-1.09-2.01-.08-.79.15-1.57.65-2.19l18.67-22.95-18.67-22.95c-.5-.62-.74-1.4-.65-2.19.08-.79.47-1.51,1.09-2.01,1.28-1.04,3.16-.84,4.2.43l20.2,24.84c.89,1.09.89,2.68,0,3.77l-20.2,24.84c-.57.7-1.42,1.1-2.32,1.1ZM157.75,86.54c-.4,0-.8.13-1.13.4-.77.62-.88,1.75-.26,2.52l19.28,23.71-19.28,23.7c-.62.77-.51,1.9.26,2.52.75.61,1.92.48,2.52-.26l20.2-24.84c.53-.66.53-1.61,0-2.26l-20.2-24.84c-.35-.43-.87-.66-1.39-.66Z"/>
    </g>
    <g>
      <path class="cls-2" d="M114.17,140.39c-.69,0-1.38-.3-1.86-.88l-20.2-24.84c-.71-.88-.71-2.14,0-3.02l20.2-24.84c.83-1.02,2.34-1.18,3.36-.35,1.02.83,1.18,2.34.35,3.36l-18.98,23.33,18.98,23.33c.83,1.02.68,2.53-.35,3.36-.44.36-.98.54-1.51.54Z"/>
      <path class="cls-2" d="M114.17,140.99c-.9,0-1.75-.4-2.32-1.1l-20.2-24.84c-.89-1.09-.89-2.68,0-3.77l20.2-24.84c1.04-1.28,2.92-1.47,4.2-.43.62.5,1.01,1.22,1.09,2.01s-.15,1.57-.65,2.19l-18.67,22.95,18.67,22.95c.5.62.74,1.4.65,2.19s-.47,1.51-1.09,2.01c-.53.43-1.2.67-1.88.67ZM114.17,86.54c-.52,0-1.04.23-1.39.66l-20.2,24.84c-.53.66-.53,1.61,0,2.26l20.2,24.84c.6.74,1.78.86,2.52.26.37-.3.6-.73.65-1.21.05-.48-.09-.94-.39-1.32l-19.28-23.7,19.28-23.71c.3-.37.44-.84.39-1.32-.05-.48-.28-.91-.65-1.21-.33-.27-.73-.4-1.13-.4Z"/>
    </g>
  </g>
  <g>
    <path class="cls-1" d="M201.77,177.03H24.2c-1.29,0-2.33,1.05-2.33,2.33s1.05,2.33,2.33,2.33h177.57v-4.67Z"/>
    <path class="cls-2" d="M202.37,182.29H24.2c-1.62,0-2.93-1.31-2.93-2.93s1.31-2.93,2.93-2.93h178.17v5.86ZM24.2,177.63c-.96,0-1.74.78-1.74,1.73s.78,1.74,1.74,1.74h176.97v-3.47H24.2Z"/>
  </g>
</svg>